<svg width="81" height="70" viewBox="0 0 81 70" fill="none" xmlns="http://www.w3.org/2000/svg">
<path d="M42.9155 2.625V8.75H49.8359C51.0658 8.75 52.2677 9.121 53.2839 9.8105L59.2302 13.8495C59.3738 13.9475 59.5455 14 59.7207 14H74.0942C74.7912 14 75.4596 14.2766 75.9524 14.7688C76.4453 15.2611 76.7222 15.9288 76.7222 16.625C76.7222 17.3212 76.4453 17.9889 75.9524 18.4812C75.4596 18.9734 74.7912 19.25 74.0942 19.25H68.5648L80.3593 46.13C80.5959 46.6674 80.6451 47.2685 80.499 47.8371C80.3528 48.4057 80.0199 48.9089 79.5534 49.266C79.203 49.525 78.8421 49.7665 78.4672 49.987C77.5784 50.5168 76.6534 50.9834 75.699 51.3835C72.5296 52.7075 69.127 53.3846 65.6916 53.375C62.2575 53.3858 58.856 52.7099 55.6876 51.387C54.7327 50.9868 53.8076 50.5189 52.9194 49.987C52.5476 49.7721 52.1885 49.536 51.8437 49.28L51.8262 49.266C51.3597 48.9089 51.0268 48.4057 50.8806 47.8371C50.7345 47.2685 50.7837 46.6674 51.0203 46.13L62.8218 19.25H59.7172C58.4873 19.25 57.2854 18.879 56.2693 18.1895L50.323 14.1505C50.1785 14.0518 50.0074 13.9993 49.8324 14H42.9155V64.75H58.638C59.335 64.75 60.0034 65.0266 60.4963 65.5188C60.9891 66.0111 61.266 66.6788 61.266 67.375C61.266 68.0712 60.9891 68.7389 60.4963 69.2312C60.0034 69.7234 59.335 70 58.638 70H21.937C21.24 70 20.5716 69.7234 20.0787 69.2312C19.5859 68.7389 19.309 68.0712 19.309 67.375C19.309 66.6788 19.5859 66.0111 20.0787 65.5188C20.5716 65.0266 21.24 64.75 21.937 64.75H37.6595V14H30.7391C30.5641 13.9999 30.3932 14.0523 30.2485 14.1505L24.3057 18.1895C23.2895 18.879 22.0877 19.25 20.8578 19.25H17.7532L29.5547 46.13C29.7831 46.6522 29.8352 47.2345 29.7031 47.7888C29.571 48.3432 29.2618 48.8396 28.8224 49.203C28.5421 49.4305 28.2617 49.644 27.7361 49.9835C26.85 50.5567 25.9223 51.0633 24.961 51.499C21.7962 52.9351 18.3594 53.6751 14.8834 53.669C11.4073 53.6763 7.97029 52.9362 4.8059 51.499C3.84451 51.0633 2.9169 50.5567 2.03073 49.9835C1.656 49.7455 1.29455 49.4873 0.947991 49.21C0.512015 48.8425 0.205347 48.3451 0.0729271 47.7909C-0.0594928 47.2366 -0.0107021 46.6546 0.212149 46.13L12.0101 19.25H6.48432C5.78733 19.25 5.11889 18.9734 4.62604 18.4812C4.1332 17.9889 3.85632 17.3212 3.85632 16.625C3.85632 15.9288 4.1332 15.2611 4.62604 14.7688C5.11889 14.2766 5.78733 14 6.48432 14H20.8578C21.033 14 21.2047 13.9475 21.3518 13.8495L27.2911 9.8105C28.3073 9.1175 29.5127 8.75 30.7426 8.75H37.6595V2.625C37.6595 1.92881 37.9364 1.26113 38.4292 0.768844C38.9221 0.276561 39.5905 0 40.2875 0C40.9845 0 41.6529 0.276561 42.1458 0.768844C42.6386 1.26113 42.9155 1.92881 42.9155 2.625ZM5.92368 46.193C8.68148 47.6595 11.7592 48.4229 14.8834 48.4155C18.0077 48.4229 21.0854 47.6595 23.8432 46.193L14.8834 25.788L5.92368 46.193ZM56.7668 46.109C57.0542 46.249 57.3765 46.3995 57.7304 46.55C59.5876 47.3305 62.3032 48.125 65.6916 48.125C68.7806 48.1336 71.8316 47.4444 74.6163 46.109L65.6916 25.7845L56.7668 46.109Z" fill="#FF870B"/>
</svg>
