<svg width="76" height="76" viewBox="0 0 76 76" fill="none" xmlns="http://www.w3.org/2000/svg">
<path d="M54.1538 19.2041V8.43491C54.1538 7.00682 53.5865 5.63722 52.5767 4.62741C51.5669 3.6176 50.1973 3.05029 48.7692 3.05029H27.2308C25.8027 3.05029 24.4331 3.6176 23.4233 4.62741C22.4135 5.63722 21.8462 7.00682 21.8462 8.43491V19.2041M67.6154 19.2041H8.38462C6.95653 19.2041 5.58693 19.7714 4.57712 20.7813C3.56731 21.7911 3 23.1607 3 24.5888V67.6657C3 69.0938 3.56731 70.4634 4.57712 71.4732C5.58693 72.483 6.95653 73.0503 8.38462 73.0503H67.6154C69.0435 73.0503 70.4131 72.483 71.4229 71.4732C72.4327 70.4634 73 69.0938 73 67.6657V24.5888C73 23.1607 72.4327 21.7911 71.4229 20.7813C70.4131 19.7714 69.0435 19.2041 67.6154 19.2041Z" stroke="#FF870B" stroke-width="5" stroke-linecap="round" stroke-linejoin="round"/>
</svg>
