<svg width="56" height="53" viewBox="0 0 56 53" fill="none" xmlns="http://www.w3.org/2000/svg">
<path d="M6.22222 9.35294C4.57199 9.35294 2.98934 10.0099 1.82245 11.1792C0.655554 12.3486 0 13.9345 0 15.5882V46.7647C0 48.4184 0.655554 50.0044 1.82245 51.1737C2.98934 52.3431 4.57199 53 6.22222 53H49.7778C51.428 53 53.0107 52.3431 54.1776 51.1737C55.3444 50.0044 56 48.4184 56 46.7647V15.5882C56 13.9345 55.3444 12.3486 54.1776 11.1792C53.0107 10.0099 51.428 9.35294 49.7778 9.35294H6.22222ZM6.22222 43.6471L17.1111 29.6176L24.8889 38.9706L35.7778 24.9412L49.7778 43.6471H6.22222ZM46.6667 0C48.3169 0 49.8995 0.656931 51.0664 1.82628C52.2333 2.99562 52.8889 4.58159 52.8889 6.23529H3.11111C3.11111 4.58159 3.76666 2.99562 4.93356 1.82628C6.10045 0.656931 7.6831 0 9.33333 0H46.6667Z" fill="#FF870B"/>
</svg>
