<svg width="49" height="53" viewBox="0 0 49 53" fill="none" xmlns="http://www.w3.org/2000/svg">
<path d="M21.6838 18.9685C19.4127 18.3821 17.4334 16.9875 16.1169 15.0461C14.8004 13.1047 14.2372 10.7499 14.5327 8.42292C14.8283 6.09597 15.9624 3.9567 17.7224 2.40609C19.4824 0.855481 21.7475 0 24.0932 0C26.4388 0 28.7039 0.855481 30.4639 2.40609C32.224 3.9567 33.358 6.09597 33.6536 8.42292C33.9492 10.7499 33.3859 13.1047 32.0694 15.0461C30.753 16.9875 28.7736 18.3821 26.5025 18.9685V24.0907H36.1397C37.4177 24.0907 38.6433 24.5984 39.547 25.502C40.4507 26.4057 40.9584 27.6313 40.9584 28.9093V34.0315C43.2295 34.6179 45.2088 36.0125 46.5253 37.9539C47.8418 39.8953 48.405 42.2501 48.1095 44.5771C47.8139 46.904 46.6798 49.0433 44.9198 50.5939C43.1598 52.1445 40.8947 53 38.549 53C36.2034 53 33.9383 52.1445 32.1783 50.5939C30.4182 49.0433 29.2842 46.904 28.9886 44.5771C28.693 42.2501 29.2563 39.8953 30.5728 37.9539C31.8892 36.0125 33.8686 34.6179 36.1397 34.0315V28.9093H12.0466V34.0315C14.3178 34.6179 16.2971 36.0125 17.6136 37.9539C18.93 39.8953 19.4933 42.2501 19.1977 44.5771C18.9022 46.904 17.7681 49.0433 16.0081 50.5939C14.248 52.1445 11.9829 53 9.63728 53C7.29163 53 5.02651 52.1445 3.26649 50.5939C1.50647 49.0433 0.372397 46.904 0.0768353 44.5771C-0.218726 42.2501 0.344521 39.8953 1.661 37.9539C2.97748 36.0125 4.9568 34.6179 7.22796 34.0315V28.9093C7.22796 27.6313 7.73564 26.4057 8.63931 25.502C9.54298 24.5984 10.7686 24.0907 12.0466 24.0907H21.6838V18.9685Z" fill="#FF870B"/>
</svg>
