<svg width="47" height="53" viewBox="0 0 47 53" fill="none" xmlns="http://www.w3.org/2000/svg">
<path fill-rule="evenodd" clip-rule="evenodd" d="M3.06022 3.1058C-3.11269e-07 6.20895 0 11.2069 0 21.2V31.8C0 41.7932 -3.11269e-07 46.791 3.06022 49.8942C6.11783 53 11.0424 53 20.8889 53H26.1111C35.9576 53 40.8822 53 43.9398 49.8942C47 46.791 47 41.7932 47 31.8V21.2C47 11.2069 47 6.20895 43.9398 3.1058C40.8822 -3.15905e-07 35.9576 0 26.1111 0H20.8889C11.0424 0 6.11783 -3.15905e-07 3.06022 3.1058ZM11.0972 15.9C11.0972 15.3729 11.3035 14.8674 11.6708 14.4946C12.0381 14.1219 12.5362 13.9125 13.0556 13.9125H33.9444C34.4638 13.9125 34.9619 14.1219 35.3292 14.4946C35.6965 14.8674 35.9028 15.3729 35.9028 15.9C35.9028 16.4271 35.6965 16.9326 35.3292 17.3054C34.9619 17.6781 34.4638 17.8875 33.9444 17.8875H13.0556C12.5362 17.8875 12.0381 17.6781 11.6708 17.3054C11.3035 16.9326 11.0972 16.4271 11.0972 15.9ZM11.0972 26.5C11.0972 25.9729 11.3035 25.4674 11.6708 25.0946C12.0381 24.7219 12.5362 24.5125 13.0556 24.5125H33.9444C34.4638 24.5125 34.9619 24.7219 35.3292 25.0946C35.6965 25.4674 35.9028 25.9729 35.9028 26.5C35.9028 27.0271 35.6965 27.5326 35.3292 27.9054C34.9619 28.2781 34.4638 28.4875 33.9444 28.4875H13.0556C12.5362 28.4875 12.0381 28.2781 11.6708 27.9054C11.3035 27.5326 11.0972 27.0271 11.0972 26.5ZM13.0556 35.1125C12.5362 35.1125 12.0381 35.3219 11.6708 35.6946C11.3035 36.0674 11.0972 36.5729 11.0972 37.1C11.0972 37.6271 11.3035 38.1326 11.6708 38.5054C12.0381 38.8781 12.5362 39.0875 13.0556 39.0875H26.1111C26.6305 39.0875 27.1286 38.8781 27.4959 38.5054C27.8631 38.1326 28.0694 37.6271 28.0694 37.1C28.0694 36.5729 27.8631 36.0674 27.4959 35.6946C27.1286 35.3219 26.6305 35.1125 26.1111 35.1125H13.0556Z" fill="#FF870B"/>
</svg>
