<svg width="62" height="53" viewBox="0 0 62 53" fill="none" xmlns="http://www.w3.org/2000/svg">
<path d="M30.929 0C29.7697 -1.72751e-08 28.6217 0.228343 27.5507 0.671993C26.4796 1.11564 25.5064 1.76591 24.6867 2.58567C23.8669 3.40542 23.2166 4.37862 22.773 5.44968C22.3293 6.52075 22.101 7.66871 22.101 8.82802C22.101 9.98733 22.3293 11.1353 22.773 12.2064C23.2166 13.2774 23.8669 14.2506 24.6867 15.0704C25.5064 15.8901 26.4796 16.5404 27.5507 16.9841C28.6217 17.4277 29.7697 17.656 30.929 17.656C33.2703 17.656 35.5158 16.726 37.1714 15.0704C38.8269 13.4148 39.757 11.1694 39.757 8.82802C39.757 6.48668 38.8269 4.24124 37.1714 2.58567C35.5158 0.930092 33.2703 0 30.929 0ZM50.8119 4.40959C49.0542 4.40959 47.3684 5.10786 46.1255 6.35078C44.8826 7.59371 44.1843 9.27948 44.1843 11.0372C44.1843 12.795 44.8826 14.4808 46.1255 15.7237C47.3684 16.9666 49.0542 17.6649 50.8119 17.6649C52.5697 17.6649 54.2555 16.9666 55.4984 15.7237C56.7413 14.4808 57.4396 12.795 57.4396 11.0372C57.4396 9.27948 56.7413 7.59371 55.4984 6.35078C54.2555 5.10786 52.5697 4.40959 50.8119 4.40959ZM11.0461 4.40959C9.28831 4.40959 7.60255 5.10786 6.35962 6.35078C5.1167 7.59371 4.41843 9.27948 4.41843 11.0372C4.41843 12.795 5.1167 14.4808 6.35962 15.7237C7.60255 16.9666 9.28831 17.6649 11.0461 17.6649C12.8038 17.6649 14.4896 16.9666 15.7325 15.7237C16.9755 14.4808 17.6737 12.795 17.6737 11.0372C17.6737 9.27948 16.9755 7.59371 15.7325 6.35078C14.4896 5.10786 12.8038 4.40959 11.0461 4.40959ZM17.6737 26.4708C17.6819 25.3043 18.151 24.1884 18.9787 23.3665C19.8065 22.5445 20.9256 22.0833 22.0921 22.0833H39.7659C40.9377 22.0833 42.0616 22.5488 42.8902 23.3774C43.7188 24.2061 44.1843 25.3299 44.1843 26.5017V39.757C44.184 41.1476 43.9663 42.5296 43.5392 43.8529C42.5608 46.8517 40.5455 49.4035 37.855 51.0501C35.1645 52.6967 31.9751 53.3301 28.8595 52.8368C25.744 52.3434 22.9064 50.7556 20.8562 48.3583C18.8061 45.961 17.6777 42.9114 17.6737 39.757V26.5017V26.4708ZM13.2553 26.5017C13.2553 24.889 13.6839 23.3823 14.4394 22.0833H4.41843C3.24659 22.0833 2.12274 22.5488 1.29413 23.3774C0.465512 24.2061 6.11569e-07 25.3299 6.11569e-07 26.5017V37.5478C-0.000601118 39.3563 0.442842 41.1373 1.29139 42.7343C2.13993 44.3314 3.36762 45.6957 4.86664 46.7074C6.36567 47.7191 8.09016 48.3473 9.8887 48.5368C11.6872 48.7262 13.5048 48.4712 15.1817 47.7942C13.91 45.3047 13.2496 42.5481 13.2553 39.7526V26.5017ZM48.6027 26.5017V39.757C48.6027 42.6511 47.909 45.3817 46.6763 47.7942C48.3532 48.4712 50.1708 48.7262 51.9693 48.5368C53.7678 48.3473 55.4923 47.7191 56.9914 46.7074C58.4904 45.6957 59.7181 44.3314 60.5666 42.7343C61.4152 41.1373 61.8586 39.3563 61.858 37.5478V26.5017C61.858 25.3299 61.3925 24.2061 60.5639 23.3774C59.7353 22.5488 58.6114 22.0833 57.4396 22.0833H47.4186C48.1697 23.3823 48.6027 24.889 48.6027 26.5017Z" fill="#FF870B"/>
</svg>
