<svg width="63" height="56" viewBox="0 0 63 56" fill="none" xmlns="http://www.w3.org/2000/svg">
<path d="M35.5378 2.33931L62.3753 48.9821C62.7846 49.6933 63 50.5001 63 51.3214C63 52.1426 62.7846 52.9494 62.3754 53.6606C61.9662 54.3719 61.3776 54.9625 60.6688 55.3731C59.96 55.7838 59.156 56 58.3376 56H4.66242C3.84398 56 3.03997 55.7838 2.33119 55.3731C1.62241 54.9625 1.03384 54.3719 0.624632 53.6606C0.215423 52.9494 -5.19794e-06 52.1426 0 51.3214C5.19813e-06 50.5001 0.215443 49.6933 0.624662 48.9821L27.4622 2.33931C29.2558 -0.779771 33.7411 -0.779771 35.5378 2.33931ZM31.5 39.3067C30.6756 39.3067 29.885 39.6353 29.3021 40.2202C28.7191 40.8052 28.3916 41.5985 28.3916 42.4258C28.3916 43.253 28.7191 44.0463 29.3021 44.6313C29.885 45.2162 30.6756 45.5448 31.5 45.5448C32.3244 45.5448 33.115 45.2162 33.6979 44.6313C34.2809 44.0463 34.6084 43.253 34.6084 42.4258C34.6084 41.5985 34.2809 40.8052 33.6979 40.2202C33.115 39.6353 32.3244 39.3067 31.5 39.3067ZM31.5 17.4731C30.7387 17.4732 30.0038 17.7537 29.4349 18.2613C28.8659 18.769 28.5025 19.4685 28.4134 20.2273L28.3916 20.5922V33.0685C28.3925 33.8635 28.6959 34.6282 29.2397 35.2062C29.7836 35.7843 30.5269 36.1322 31.3178 36.1788C32.1087 36.2254 32.8875 35.9672 33.495 35.4569C34.1026 34.9467 34.493 34.2229 34.5866 33.4334L34.6084 33.0685V20.5922C34.6084 19.765 34.2809 18.9716 33.6979 18.3867C33.115 17.8017 32.3244 17.4731 31.5 17.4731Z" fill="#FF870B"/>
</svg>
