<svg width="91" height="79" viewBox="0 0 91 79" fill="none" xmlns="http://www.w3.org/2000/svg">
<path d="M45.0458 0C45.0458 0 44.1376 6.9702 35.6955 9.29485C27.2528 11.6195 11.2748 9.29485 11.2748 9.29485L8.56507 11.7708L10.1116 13.4903L9.90509 14.0303L0.112204 39.8141L0 40.1136V40.436C0 43.9843 1.55895 46.8659 3.84288 48.6981C6.12662 50.5304 9.04939 51.3851 11.9535 51.3857C14.8579 51.3862 17.7862 50.5302 20.0703 48.6981C22.3544 46.8661 23.9132 43.986 23.9132 40.436V40.0899L23.7832 39.7729L13.4059 14.4936C17.9292 13.9297 28.6811 12.89 35.2233 14.7812C39.5799 16.0412 42.052 18.6015 43.4281 20.7844L36.793 56.5904L40.8367 62.2819C37.4838 63.7371 34.68 66.9462 33.7414 71.9231C23.1489 73.0864 15.7076 75.8176 15.7076 79H74.6194C74.6194 75.8178 67.1784 73.0864 56.5862 71.9231C55.6587 66.9283 52.8895 63.64 49.5615 62.1765L53.5283 56.5902L46.846 20.5024C48.2546 18.3852 50.6972 15.9873 54.8683 14.7812C61.4712 12.8721 72.3629 13.9513 76.8094 14.5114L67.1994 39.8141L67.0814 40.1134V40.4358C67.0814 43.9842 68.6403 46.8657 70.9242 48.6979C73.208 50.5302 76.1364 51.3849 79.0405 51.3855C81.9447 51.386 84.873 50.53 87.1573 48.6979C89.441 46.8659 91 43.9858 91 40.4358V40.0897L90.87 39.7727L80.2804 13.9832L80.1032 13.5551L81.7621 11.9706L78.8165 9.29485C78.8165 9.29485 62.8442 11.6195 54.4018 9.29485C45.9593 6.9702 45.0458 0 45.0458 0ZM11.6227 19.4463L19.9757 39.7964H3.89011L11.6227 19.4463ZM78.7103 19.4463L87.0629 39.7964H70.9716L78.7101 19.4465L78.7103 19.4463Z" fill="#FF870B"/>
</svg>
