<svg width="15" height="16" viewBox="0 0 15 16" fill="none" xmlns="http://www.w3.org/2000/svg">
<path d="M0 3.73334C0 3.32097 0.270164 2.98668 0.60343 2.98668L2.68746 2.98628C3.10153 2.97329 3.46682 2.64751 3.60772 2.16555C3.61143 2.15288 3.61568 2.13725 3.63096 2.08054L3.72076 1.74714C3.77571 1.54272 3.82358 1.36463 3.89058 1.20544C4.15523 0.57657 4.6449 0.139871 5.21075 0.0280656C5.35397 -0.000236804 5.50567 -0.000117573 5.67979 1.8619e-05H8.40036C8.57448 -0.000117573 8.72616 -0.000236804 8.86938 0.0280656C9.43524 0.139871 9.92491 0.57657 10.1895 1.20544C10.2566 1.36463 10.3044 1.54272 10.3594 1.74714L10.4492 2.08054C10.4644 2.13725 10.4687 2.15288 10.4724 2.16555C10.6133 2.64751 11.0511 2.97369 11.4651 2.98668H13.4766C13.8098 2.98668 14.08 3.32097 14.08 3.73334C14.08 4.14571 13.8098 4.48 13.4766 4.48H0.60343C0.270164 4.48 0 4.14571 0 3.73334Z" fill="#FF0000"/>
<path fill-rule="evenodd" clip-rule="evenodd" d="M6.7072 16H7.37272C9.66249 16 10.8074 16 11.5518 15.2956C12.2962 14.5913 12.3723 13.4359 12.5246 11.125L12.7441 7.79526C12.8268 6.54142 12.8681 5.91453 12.4946 5.51726C12.1212 5.12 11.4905 5.12 10.2294 5.12H3.8506C2.58935 5.12 1.95873 5.12 1.58529 5.51726C1.21185 5.91453 1.25318 6.54142 1.33582 7.79526L1.55529 11.125C1.70761 13.4359 1.78376 14.5913 2.52815 15.2956C3.27254 16 4.41743 16 6.7072 16ZM5.59692 8.19908C5.56302 7.85418 5.26056 7.60245 4.92141 7.63696C4.58226 7.67147 4.33483 7.97908 4.36874 8.32399L4.78017 12.5086C4.81409 12.8536 5.11651 13.1053 5.45563 13.0708C5.79482 13.0363 6.04225 12.7286 6.00835 12.3837L5.59692 8.19908ZM9.15849 7.63696C9.49767 7.67147 9.7451 7.97908 9.7112 8.32399L9.29977 12.5086C9.26587 12.8536 8.96339 13.1053 8.62429 13.0708C8.28511 13.0363 8.03767 12.7286 8.07158 12.3837L8.483 8.19908C8.51691 7.85418 8.81939 7.60245 9.15849 7.63696Z" fill="#FF0000"/>
</svg>
