<svg width="84" height="71" viewBox="0 0 84 71" fill="none" xmlns="http://www.w3.org/2000/svg">
<path d="M36.6273 70.0291C27.5905 70.0291 18.5537 70.0291 9.51689 70.0291C8.52849 70.0291 7.54009 69.9727 6.55169 69.8315C3.33233 69.4363 0.621281 66.7546 0.19768 63.5365C0.0847201 62.5485 0 61.5605 0 60.5725C0.02824 43.5789 0.02824 26.557 0.02824 9.53512C0.02824 8.54712 0.0847201 7.55911 0.22592 6.57111C0.621281 3.38127 3.33233 0.671323 6.52345 0.276122C7.39889 0.163208 8.30257 0.0785216 9.20625 0.0785216C17.5935 0.0785216 25.9526 0.10675 34.3399 0.050293C35.9496 0.050293 37.1921 0.473723 38.35 1.65933C42.1341 5.58311 46.0313 9.42221 49.9002 13.2331C50.6344 13.9388 50.945 14.701 50.945 15.7172C50.9168 20.6572 50.945 25.5972 50.9168 30.5372C50.9168 31.7228 51.2274 32.2027 52.4982 32.2027C56.706 32.2027 57.9203 33.3319 58.231 37.5379C58.2875 38.413 58.6828 38.6671 59.4735 38.6389C61.3939 38.6106 63.3424 38.6106 65.2627 38.6389C68.1715 38.6671 69.6682 40.0503 69.9788 42.9578C70.0353 43.466 70.0353 44.0023 70.0353 44.5104C70.0353 51.0877 70.0353 57.665 70.0353 64.2705C70.0353 65.0327 69.9788 65.7666 69.8659 66.5288C69.5835 68.3354 68.3127 69.6057 66.5335 69.8597C65.6581 70.0009 64.7544 70.0291 63.8507 70.0291C54.7857 70.0574 45.6924 70.0574 36.6273 70.0291ZM3.19112 35.0538C3.19112 44.0305 3.19112 53.0072 3.19112 62.0122C3.19112 65.0327 4.99849 66.8675 8.02017 66.8675C13.7529 66.8957 19.4856 66.8393 25.2466 66.8957C26.4044 66.8957 26.7716 66.5288 26.7716 65.3714C26.7151 58.3707 26.7151 51.37 26.7716 44.341C26.7716 43.099 26.3762 42.732 25.1619 42.732C19.7115 42.7885 14.2612 42.7602 8.78265 42.7602C7.70953 42.7602 6.83409 42.3933 6.83409 41.2077C6.86233 40.0503 7.70953 39.6833 8.81089 39.7115C14.5436 39.7398 20.2764 39.7398 26.0091 39.768C27.1387 39.768 28.24 39.7398 29.2567 39.0905C29.9062 38.6953 30.6969 38.6671 31.4594 38.6671C33.4362 38.6671 35.413 38.6671 37.3898 38.6671C37.8981 38.6671 38.3782 38.6953 38.5194 37.9614C38.7736 36.7193 38.2088 36.5499 37.1357 36.5499C28.1553 36.5782 19.175 36.5499 10.1664 36.5499C9.54513 36.5499 8.95209 36.5782 8.33081 36.5217C7.48361 36.437 6.89057 35.9571 6.83409 35.1103C6.77761 34.2634 7.28593 33.6706 8.10489 33.5012C8.69793 33.3883 9.31921 33.3601 9.94049 33.3601C19.3444 33.3601 28.7484 33.3601 38.1805 33.3601C38.7453 33.3601 39.4231 33.5012 39.8467 33.219C41.8517 31.8922 44.0827 32.2027 46.2854 32.2027C47.2738 32.2027 47.7539 31.9204 47.7257 30.8478C47.6974 26.5288 47.6974 22.1816 47.7539 17.8626C47.7539 16.8181 47.3586 16.4511 46.3419 16.4794C44.2239 16.5358 42.1059 16.5076 39.9879 16.4794C36.3732 16.4794 34.6223 14.8139 34.5093 11.1724C34.4529 9.11169 34.4529 7.02277 34.5093 4.96208C34.5658 3.63533 34.114 3.18367 32.7302 3.18367C24.6253 3.24013 16.5487 3.2119 8.44377 3.2119C4.88553 3.2119 3.19112 4.93385 3.19112 8.51889C3.19112 17.3827 3.19112 26.2183 3.19112 35.0538ZM48.2905 66.8675C53.8255 66.8675 59.3888 66.8675 64.9239 66.8675C66.59 66.8675 66.8442 66.6417 66.8442 65.0044C66.8442 60.7419 66.8442 56.4511 66.8442 52.1886C66.8442 50.5796 66.8159 50.5514 65.2345 51.1442C59.417 53.4024 53.4019 54.4469 47.1609 54.2775C41.7105 54.1364 36.4297 53.1202 31.3464 51.0877C30.1321 50.6078 29.9062 50.9466 29.9062 52.1039C29.9344 56.3665 29.9344 60.6572 29.9344 64.9197C29.9344 66.6417 30.1039 66.8393 31.9112 66.8393C37.3898 66.8675 42.8401 66.8675 48.2905 66.8675ZM48.4317 41.8569C43.3485 41.8569 38.2653 41.8569 33.182 41.8569C29.7932 41.8569 30.0192 41.5182 29.9344 45.0468C29.9062 46.5993 30.358 47.418 31.8265 47.9825C42.4448 52.0757 53.1195 52.2733 63.8225 48.3495C67.5219 46.9945 66.8159 47.6438 66.8442 43.8612C66.8724 42.0545 66.6465 41.8569 64.8109 41.8569C59.3323 41.8569 53.882 41.8569 48.4317 41.8569ZM48.2622 38.6671C50.0978 38.6671 51.9334 38.6389 53.769 38.6671C54.6445 38.6953 55.0963 38.3848 55.0398 37.4533C54.9834 36.5499 55.1528 35.4773 53.8538 35.449C50.1826 35.3926 46.5114 35.3643 42.8401 35.4773C41.3999 35.5055 41.7388 36.8887 41.6541 37.792C41.5411 38.8365 42.4165 38.6671 43.0378 38.6671C44.7887 38.6671 46.5114 38.6671 48.2622 38.6671ZM37.6722 5.95008C37.6722 7.86963 37.6722 9.84564 37.6722 11.8216C37.6722 12.5556 37.9829 13.2048 38.7736 13.2331C40.8633 13.2895 42.9531 13.2613 44.9299 13.2613C42.5013 10.8336 40.1009 8.40597 37.6722 5.95008Z" fill="#FF870B"/>
<path d="M54.8501 54.8139C54.9631 52.2733 54.9631 49.7328 54.8783 47.2204C54.8219 45.7525 55.782 44.7363 57.307 44.6516C58.606 44.5951 59.9333 44.5951 61.2606 44.6516C62.8703 44.7363 63.8022 45.6396 63.8022 47.2769C63.8587 52.3862 63.8587 57.5239 63.8022 62.6332C63.8022 64.1858 63.0115 64.9762 61.4583 65.0891C60.018 65.2021 58.5495 65.2021 57.1093 65.1174C55.7255 65.0327 54.8219 64.0447 54.8783 62.6897C54.9631 60.0644 54.9631 57.4392 54.8501 54.8139ZM57.9565 54.8139C57.9565 56.8464 57.9847 58.8506 57.9565 60.8831C57.9283 61.8428 58.3519 62.0969 59.2273 62.0969C60.1027 62.0969 60.6393 61.9558 60.6393 60.8831C60.6111 56.9311 60.6111 52.979 60.6393 49.027C60.6393 47.9543 60.0745 47.8132 59.2273 47.8132C58.3236 47.8132 57.9565 48.0955 57.9565 49.0553C57.9847 50.9466 57.9565 52.8944 57.9565 54.8139Z" fill="#FF870B"/>
<path d="M65.2136 27.1215C70.438 27.1215 75.6624 27.1215 80.8586 27.1215C81.3669 27.1215 81.9035 27.1215 82.4118 27.2062C83.2025 27.3473 83.6261 27.8837 83.6544 28.7023C83.6544 29.5209 83.2025 30.029 82.44 30.1984C81.9882 30.3113 81.5081 30.2831 81.028 30.2831C70.2968 30.2831 59.5938 30.2831 48.8626 30.2831C48.4955 30.2831 48.1001 30.3113 47.733 30.2266C46.8858 30.0855 46.3493 29.5492 46.3493 28.7023C46.321 27.9119 46.8293 27.3755 47.5918 27.2062C48.1001 27.0933 48.6085 27.0933 49.1168 27.0933C54.4824 27.1215 59.848 27.1215 65.2136 27.1215Z" fill="#FF870B"/>
<path d="M65.0444 20.8831C70.2688 20.8831 75.465 20.8831 80.6894 20.8831C81.1977 20.8831 81.7343 20.8548 82.2426 20.9395C83.0616 21.0807 83.6264 21.5605 83.6264 22.4639C83.6264 23.3389 83.0616 23.8188 82.2708 24.0164C81.9037 24.1011 81.5366 24.1011 81.1412 24.1011C70.3818 24.1011 59.6223 24.1011 48.8629 24.1011C48.4393 24.1011 48.0157 24.1011 47.6203 23.9882C46.7731 23.7624 46.2365 23.1978 46.3213 22.3509C46.3777 21.5605 46.9425 21.1089 47.705 20.9677C48.1569 20.8831 48.6369 20.9113 49.117 20.9113C54.4262 20.8831 59.7353 20.8831 65.0444 20.8831Z" fill="#FF870B"/>
<path d="M53.6921 59.5567C53.6921 60.6858 53.7486 61.8149 53.6921 62.9441C53.6074 64.2991 52.9014 65.0048 51.5459 65.0612C50.1057 65.1177 48.6372 65.1177 47.1969 65.0612C45.8132 65.0048 44.966 64.2708 44.9095 62.8876C44.8248 60.6293 44.8248 58.3711 44.9095 56.1128C44.966 54.6731 45.8696 53.9109 47.3099 53.8827C48.6654 53.8545 50.0492 53.8262 51.4047 53.8827C52.9014 53.9392 53.7204 54.786 53.7486 56.3104C53.7486 57.4113 53.7204 58.484 53.6921 59.5567ZM48.0441 59.3308C48.0441 59.8389 48.0724 60.3471 48.0441 60.8834C47.9594 61.9561 48.5807 62.0972 49.4561 62.0972C50.3316 62.0972 50.7834 61.8714 50.7269 60.9116C50.6705 60.0648 50.6422 59.2461 50.6422 58.3993C50.6422 57.7218 50.9529 56.9032 49.7668 56.9596C48.8631 57.0161 47.79 56.8467 48.0441 58.3711C48.0724 58.6816 48.0159 59.0203 48.0441 59.3308Z" fill="#FF870B"/>
<path d="M56.2144 17.8433C53.6163 17.8433 51.0464 17.8433 48.4484 17.8433C47.0364 17.8433 46.1327 17.2223 46.2174 16.2625C46.3586 15.0204 47.2623 14.6817 48.3354 14.6817C53.701 14.6535 59.0666 14.6535 64.4322 14.6817C65.4489 14.6817 66.409 15.0769 66.409 16.2343C66.4373 17.4763 65.5054 17.8715 64.3757 17.8715C61.6929 17.8151 58.9537 17.8433 56.2144 17.8433Z" fill="#FF870B"/>
</svg>
