<svg width="10" height="18" viewBox="0 0 10 18" fill="none" xmlns="http://www.w3.org/2000/svg">
<path d="M0.3824 17.5615C0.13755 17.3158 1.11795e-06 16.9826 1.1027e-06 16.6352C1.08745e-06 16.2878 0.13755 15.9547 0.3824 15.709L6.84743 9.22391L0.382399 2.73883C0.144489 2.49174 0.0128446 2.1608 0.0158203 1.81729C0.0187961 1.47379 0.156154 1.14519 0.398309 0.902285C0.640464 0.659379 0.968043 0.521597 1.31049 0.518612C1.65294 0.515627 1.98285 0.647679 2.22918 0.886328L9.6176 8.29765C9.86245 8.54334 10 8.87651 10 9.22391C10 9.5713 9.86245 9.90447 9.6176 10.1502L2.22918 17.5615C1.98425 17.8071 1.65211 17.9451 1.30579 17.9451C0.959467 17.9451 0.627324 17.8071 0.3824 17.5615Z" fill="#033F89"/>
</svg>
