<svg width="30" height="30" viewBox="0 0 30 30" fill="none" xmlns="http://www.w3.org/2000/svg">
<path fill-rule="evenodd" clip-rule="evenodd" d="M11.1783 21.1783L24.1667 8.19001L27.155 11.1783C27.3881 11.4114 27.685 11.57 28.0083 11.6343C28.3315 11.6986 28.6666 11.6656 28.9711 11.5395C29.2756 11.4134 29.5359 11.1998 29.719 10.9258C29.9021 10.6518 29.9999 10.3296 30 10V1.66668L29.9983 1.58668C29.9794 1.15839 29.7955 0.754029 29.4851 0.458274C29.1748 0.162519 28.762 -0.00169646 28.3333 1.3217e-05H20C19.6704 8.35909e-05 19.3483 0.09787 19.0742 0.28101C18.8002 0.464151 18.5867 0.724422 18.4605 1.02892C18.3344 1.33342 18.3014 1.66848 18.3657 1.99173C18.43 2.31499 18.5887 2.61193 18.8217 2.84501L21.81 5.83334L8.82167 18.8217C8.66248 18.9754 8.53551 19.1593 8.44816 19.3627C8.36082 19.566 8.31484 19.7847 8.31292 20.006C8.31099 20.2273 8.35316 20.4468 8.43696 20.6516C8.52077 20.8564 8.64452 21.0425 8.80101 21.199C8.9575 21.3555 9.14358 21.4792 9.34841 21.563C9.55324 21.6468 9.7727 21.689 9.994 21.6871C10.2153 21.6852 10.434 21.6392 10.6373 21.5518C10.8407 21.4645 11.0246 21.3375 11.1783 21.1783ZM1.66667 1.3217e-05C1.22464 1.3217e-05 0.800716 0.175608 0.488155 0.488168C0.175595 0.800729 0 1.22465 0 1.66668V25C0 26.3261 0.526784 27.5979 1.46447 28.5355C2.40215 29.4732 3.67392 30 5 30H25C26.3261 30 27.5979 29.4732 28.5355 28.5355C29.4732 27.5979 30 26.3261 30 25V16.6667C30 16.2246 29.8244 15.8007 29.5118 15.4882C29.1993 15.1756 28.7754 15 28.3333 15C27.8913 15 27.4674 15.1756 27.1548 15.4882C26.8423 15.8007 26.6667 16.2246 26.6667 16.6667V25C26.6667 25.442 26.4911 25.866 26.1785 26.1785C25.866 26.4911 25.442 26.6667 25 26.6667H5C4.55797 26.6667 4.13405 26.4911 3.82149 26.1785C3.50893 25.866 3.33333 25.442 3.33333 25V3.33334H13.3333C13.7754 3.33334 14.1993 3.15775 14.5118 2.84519C14.8244 2.53263 15 2.10871 15 1.66668C15 1.22465 14.8244 0.800729 14.5118 0.488168C14.1993 0.175608 13.7754 1.3217e-05 13.3333 1.3217e-05H1.66667Z" fill="#174489"/>
</svg>
