<svg width="10" height="18" viewBox="0 0 10 18" fill="none" xmlns="http://www.w3.org/2000/svg">
<path d="M9.6176 0.902139C9.86245 1.14782 10 1.48099 10 1.82839C10 2.17579 9.86245 2.50896 9.6176 2.75464L3.15257 9.23972L9.6176 15.7248C9.85551 15.9719 9.98716 16.3028 9.98418 16.6463C9.9812 16.9898 9.84385 17.3184 9.60169 17.5613C9.35954 17.8042 9.03196 17.942 8.68951 17.945C8.34706 17.948 8.01715 17.8159 7.77082 17.5773L0.382399 10.166C0.137549 9.92029 3.98071e-07 9.58711 3.82822e-07 9.23972C3.67573e-07 8.89232 0.137549 8.55915 0.382399 8.31347L7.77082 0.902139C8.01575 0.65653 8.34789 0.518554 8.69421 0.518554C9.04053 0.518554 9.37268 0.65653 9.6176 0.902139Z" fill="#174489"/>
</svg>
