<svg width="21" height="16" viewBox="0 0 21 16" fill="none" xmlns="http://www.w3.org/2000/svg">
<path fill-rule="evenodd" clip-rule="evenodd" d="M10.5022 0C6.71011 0 3.21784 1.96655 0.815181 5.28692C0.255112 6.05859 0 7.04989 0 8.00002C0 8.94985 0.255013 9.94095 0.814822 10.7125C3.21749 14.0332 6.70992 16 10.5022 16C14.2942 16 17.7865 14.0335 20.1892 10.713C20.7492 9.94135 21.0043 8.95004 21.0043 8.00002C21.0043 7.05009 20.7493 6.05898 20.1895 5.28742C17.7868 1.96674 14.2944 0 10.5022 0ZM8.2592 8.005C8.2592 6.76388 9.26105 5.76201 10.5022 5.76201C11.7433 5.76201 12.7452 6.76388 12.7452 8.005C12.7452 9.24612 11.7433 10.248 10.5022 10.248C9.26105 10.248 8.2592 9.24612 8.2592 8.005ZM10.5022 4.26669C8.43522 4.26669 6.76388 5.93803 6.76388 8.005C6.76388 10.0719 8.43522 11.7433 10.5022 11.7433C12.5692 11.7433 14.2405 10.0719 14.2405 8.005C14.2405 5.93803 12.5692 4.26669 10.5022 4.26669Z" fill="#174489"/>
</svg>
