<svg width="40" height="40" viewBox="0 0 40 40" fill="none" xmlns="http://www.w3.org/2000/svg">
<circle cx="20" cy="20" r="20" fill="#033F89"/>
<path d="M14.5677 13.7786C14.5674 14.25 14.3793 14.7021 14.0446 15.0353C13.7099 15.3685 13.2561 15.5556 12.7829 15.5554C12.3098 15.5551 11.8562 15.3676 11.5218 15.0341C11.1875 14.7005 10.9998 14.2483 11 13.7768C11.0002 13.3053 11.1884 12.8533 11.5231 12.52C11.8578 12.1868 12.3116 11.9998 12.7847 12C13.2578 12.0002 13.7115 12.1878 14.0458 12.5213C14.3802 12.8548 14.5679 13.3071 14.5677 13.7786ZM14.6212 16.8717H11.0535V28H14.6212V16.8717ZM20.2581 16.8717H16.7083V28H20.2225V22.1603C20.2225 18.9072 24.4769 18.605 24.4769 22.1603V28H28V20.9515C28 15.4674 21.703 15.6718 20.2225 18.365L20.2581 16.8717Z" fill="white"/>
</svg>
