<svg width="26" height="32" viewBox="0 0 26 32" fill="none" xmlns="http://www.w3.org/2000/svg">
<path d="M13 2.88107C10.3184 2.88107 7.74657 3.94346 5.85036 5.83452C3.95416 7.72559 2.88889 10.2904 2.88889 12.9648C2.88889 17.0876 5.46289 21.0649 8.28822 24.1462C9.73365 25.7151 11.3099 27.1589 13 28.462C14.6901 27.1599 16.2663 25.7171 17.7118 24.1491C20.5371 21.0649 23.1111 17.089 23.1111 12.9648C23.1111 10.2904 22.0458 7.72559 20.1496 5.83452C18.2534 3.94346 15.6816 2.88107 13 2.88107ZM13 32L12.181 31.4382L12.1767 31.4353L12.168 31.4281L12.1391 31.4079L12.0308 31.3316C11.4327 30.898 10.8479 30.4464 10.2772 29.9775C8.81454 28.7792 7.43753 27.4805 6.15622 26.0909C3.20378 22.8699 0 18.204 0 12.9648C5.13764e-08 9.52632 1.36964 6.22867 3.80761 3.7973C6.24558 1.36593 9.55219 0 13 0C16.4478 0 19.7544 1.36593 22.1924 3.7973C24.6304 6.22867 26 9.52632 26 12.9648C26 18.204 22.7962 22.8713 19.8438 26.0909C18.1709 27.9055 16.3356 29.5642 14.3607 31.0464C14.1961 31.169 14.03 31.2895 13.8623 31.4079L13.832 31.4281L13.8233 31.4353L13.8204 31.4368L13 32ZM13 10.0837C12.2338 10.0837 11.499 10.3873 10.9572 10.9276C10.4155 11.4679 10.1111 12.2007 10.1111 12.9648C10.1111 13.7289 10.4155 14.4617 10.9572 15.002C11.499 15.5423 12.2338 15.8459 13 15.8459C13.7662 15.8459 14.501 15.5423 15.0428 15.002C15.5845 14.4617 15.8889 13.7289 15.8889 12.9648C15.8889 12.2007 15.5845 11.4679 15.0428 10.9276C14.501 10.3873 13.7662 10.0837 13 10.0837ZM7.22222 12.9648C7.22222 11.4366 7.83095 9.97096 8.91449 8.89035C9.99804 7.80974 11.4676 7.20266 13 7.20266C14.5324 7.20266 16.002 7.80974 17.0855 8.89035C18.1691 9.97096 18.7778 11.4366 18.7778 12.9648C18.7778 14.493 18.1691 15.9586 17.0855 17.0392C16.002 18.1198 14.5324 18.7269 13 18.7269C11.4676 18.7269 9.99804 18.1198 8.91449 17.0392C7.83095 15.9586 7.22222 14.493 7.22222 12.9648Z" fill="white"/>
</svg>
