<svg width="133" height="32" viewBox="0 0 133 32" fill="none" xmlns="http://www.w3.org/2000/svg">
<path d="M65.3717 4.14551C67.4564 4.14551 69.541 4.14551 71.6468 4.14551C71.8784 4.14551 71.9626 4.18733 71.9626 4.43825C71.9416 5.23284 71.9416 6.00651 71.9626 6.8011C71.9626 7.05202 71.8784 7.11475 71.6468 7.11475C68.1302 7.11475 64.6136 7.11475 61.1181 7.11475C60.697 7.11475 60.697 7.11475 60.697 7.51204C60.697 8.05571 60.697 8.62028 60.697 9.16395C60.697 9.49851 60.718 9.51942 61.055 9.51942C64.1714 9.51942 67.2879 9.51942 70.4044 9.51942C70.7624 9.51942 70.7624 9.51942 70.7624 9.87489C70.7624 10.6486 70.7624 11.4222 70.7624 12.2168C70.7624 12.4468 70.6992 12.4887 70.4886 12.4887C67.3511 12.4887 64.2136 12.4887 61.0971 12.4887C60.718 12.4887 60.718 12.4887 60.718 12.8441C60.718 13.5551 60.718 14.2869 60.718 14.9979C60.718 15.2279 60.7812 15.3115 61.0339 15.3115C64.5715 15.3115 68.1092 15.3115 71.6468 15.3115C71.9837 15.3115 71.9837 15.3115 71.9837 15.6461C71.9837 16.4407 71.9837 17.2562 71.9837 18.0508C71.9837 18.239 71.9416 18.3017 71.7521 18.3017C67.6038 18.3017 63.4555 18.3017 59.2862 18.2808C58.2965 18.2808 57.4963 17.8835 56.9277 17.0471C56.7803 16.8171 56.675 16.5661 56.675 16.2734C56.675 16.127 56.675 15.9807 56.675 15.8552C56.675 12.7605 56.675 9.6867 56.675 6.592C56.675 5.33739 57.4331 4.43825 58.6965 4.20824C58.9703 4.14551 59.2651 4.14551 59.5599 4.14551C61.4761 4.14551 63.4344 4.14551 65.3717 4.14551Z" fill="white"/>
<path d="M118.183 4.18716C120.331 4.18716 122.5 4.18716 124.648 4.18716C125.448 4.18716 126.164 4.35444 126.796 4.85628C127.238 5.21175 127.47 5.65087 127.47 6.21544C127.47 9.56107 127.47 12.8858 127.47 16.2314C127.47 16.796 127.238 17.2351 126.796 17.5906C126.248 18.0297 125.617 18.2597 124.901 18.2597C122.521 18.2597 120.142 18.2597 117.741 18.2597C117.573 18.2597 117.531 18.2179 117.531 18.0506C117.531 17.2978 117.531 16.566 117.531 15.8132C117.531 15.6041 117.594 15.5623 117.783 15.5623C119.552 15.5623 121.342 15.5623 123.111 15.5623C123.342 15.5623 123.405 15.4996 123.405 15.2695C123.405 12.5512 123.405 9.81199 123.405 7.09367C123.405 6.86366 123.342 6.80093 123.111 6.80093C120.5 6.80093 117.867 6.80093 115.256 6.80093C114.919 6.80093 114.898 6.82184 114.898 7.1564C114.898 10.732 114.898 14.3077 114.898 17.8833C114.898 18.2179 114.898 18.2179 114.561 18.2179C113.424 18.2179 112.308 18.2179 111.171 18.2179C110.94 18.2179 110.897 18.1551 110.897 17.9251C110.897 13.4085 110.897 8.89194 110.897 4.37535C110.897 4.14534 110.961 4.10352 111.192 4.10352C113.53 4.18716 115.867 4.18716 118.183 4.18716Z" fill="white"/>
<path d="M73.7313 11.2131C73.7313 8.97576 73.7313 6.73837 73.7313 4.48007C73.7313 4.14551 73.7313 4.14551 74.0471 4.14551C78.3428 4.14551 82.6385 4.14551 86.9342 4.14551C87.4817 4.14551 88.0292 4.20824 88.5345 4.45916C89.3137 4.85645 89.7559 5.44194 89.7348 6.34108C89.7137 7.19839 89.7137 8.05571 89.6927 8.89212C89.6927 9.12213 89.6295 9.33123 89.5663 9.56124C89.44 9.93762 89.2084 10.2304 88.7872 10.2931C88.7241 10.2931 88.6398 10.314 88.6398 10.3976C88.6398 10.4604 88.7241 10.4604 88.7662 10.4813C89.3137 10.6067 89.5874 10.9204 89.6506 11.485C89.6927 11.9032 89.7137 12.3214 89.7137 12.7396C89.7137 14.496 89.7137 16.2525 89.7348 18.0089C89.7348 18.239 89.6716 18.3017 89.44 18.3017C88.345 18.2808 87.2711 18.3017 86.1761 18.3017C85.8603 18.3017 85.8392 18.2808 85.8392 17.9671C85.8392 16.0016 85.8392 14.0569 85.8392 12.0914C85.8392 11.7359 85.8392 11.7359 85.4812 11.7359C83.4597 11.7359 81.4172 11.7359 79.3957 11.7359C79.0588 11.7359 79.0588 11.7359 79.0588 11.4013C79.0588 10.7113 79.0588 10.0213 79.0588 9.35214C79.0588 9.12213 79.1009 9.03849 79.3536 9.03849C81.3961 9.0594 83.4387 9.03849 85.4602 9.03849C85.8392 9.03849 85.8603 9.03849 85.8603 8.64119C85.8603 8.13935 85.8603 7.6166 85.8603 7.11475C85.8603 6.90565 85.7971 6.84292 85.5865 6.84292C83.0175 6.84292 80.4696 6.84292 77.9006 6.84292C77.6479 6.84292 77.5847 6.92656 77.5847 7.15657C77.5847 10.7322 77.5847 14.3078 77.5847 17.9044C77.5847 18.3017 77.5847 18.3017 77.1847 18.3017C76.1318 18.3017 75.0789 18.3017 74.0261 18.3017C73.7734 18.3017 73.7102 18.2181 73.7102 17.988C73.7313 15.7297 73.7313 13.4714 73.7313 11.2131Z" fill="white"/>
<path d="M38.2708 11.255C38.2708 9.01758 38.2708 6.78019 38.2708 4.52189C38.2708 4.14551 38.2708 4.14551 38.6498 4.14551C43.156 4.14551 47.6834 4.14551 52.1896 4.14551C53.1372 4.14551 53.9374 4.43825 54.5691 5.17011C54.885 5.52558 55.0534 5.94378 55.0534 6.42472C55.0534 7.93025 55.0324 9.45669 55.0534 10.9622C55.0534 11.485 54.885 11.9032 54.527 12.2796C53.9795 12.865 53.2846 13.2205 52.4844 13.2205C49.7049 13.2414 46.9042 13.2414 44.1247 13.2414C43.9352 13.2414 43.872 13.1787 43.872 12.9905C43.872 12.0705 43.872 11.1295 43.872 10.2095C43.872 10.0004 43.9562 9.95853 44.1457 9.95853C46.3357 9.95853 48.5046 9.95853 50.6946 9.95853C50.9472 9.95853 51.0315 9.8958 51.0315 9.64488C51.0104 8.99667 51.0104 8.34845 51.0315 7.67933C51.0315 7.44931 50.9683 7.36567 50.7156 7.36567C48.0413 7.36567 45.3671 7.36567 42.6717 7.36567C42.4401 7.36567 42.3559 7.4284 42.3559 7.67933C42.3559 11.0877 42.3559 14.496 42.3559 17.8835C42.3559 18.2599 42.3559 18.2599 41.9768 18.2599C40.8608 18.2808 39.7448 18.3017 38.6498 18.3017C38.2918 18.3017 38.2918 18.3017 38.2918 17.9671C38.2708 15.7507 38.2708 13.5133 38.2708 11.255Z" fill="white"/>
<path d="M107.823 18.2805C107.234 18.2805 106.623 18.2805 106.033 18.2805C105.823 18.2805 105.717 18.2178 105.633 18.0296C105.191 17.1096 104.728 16.2104 104.286 15.3113C104.18 15.1022 104.075 15.0185 103.822 15.0185C101.59 15.0185 99.3371 15.0185 97.1051 15.0185C96.8734 15.0185 96.7681 15.1022 96.6629 15.3113C96.2206 16.2104 95.7784 17.0886 95.3362 17.9878C95.231 18.2178 95.1046 18.3014 94.8309 18.3014C93.6517 18.2805 92.4514 18.3014 91.2722 18.3014C91.0827 18.3014 90.9984 18.3014 91.1037 18.0714C93.1673 13.973 95.252 9.85373 97.2946 5.73442C97.7789 4.75164 98.5791 4.29162 99.6319 4.20798C100.285 4.16616 100.959 4.14525 101.632 4.22889C102.559 4.33344 103.191 4.85619 103.591 5.67169C104.012 6.52901 104.433 7.38633 104.875 8.22273C106.518 11.4847 108.16 14.7467 109.803 18.0087C109.95 18.3014 109.95 18.3014 109.613 18.3014C109.023 18.2805 108.413 18.2805 107.823 18.2805ZM100.432 7.76271C100.411 7.80453 100.39 7.82544 100.369 7.86726C99.653 9.28915 98.9581 10.711 98.2421 12.1329C98.1369 12.3629 98.2632 12.342 98.4106 12.342C99.7583 12.342 101.127 12.342 102.475 12.342C102.769 12.342 102.769 12.342 102.643 12.0702C101.948 10.711 101.274 9.33097 100.58 7.97181C100.558 7.88817 100.537 7.80453 100.432 7.76271Z" fill="white"/>
<path d="M9.46448 3.49711C9.61188 4.83536 9.08545 6.21543 8.64324 7.57459C7.61143 10.7529 6.15848 13.7013 4.05275 16.336C3.08412 17.5697 1.96808 18.657 0.704644 19.577C0.451957 19.7652 0.451957 19.7652 0.388785 19.4725C-1.27474 12.4258 2.53663 4.919 9.21179 2.07522C9.42236 1.99158 9.46448 2.01249 9.46448 2.2425C9.44342 2.61888 9.46448 2.97436 9.46448 3.49711Z" fill="white"/>
<path d="M30.8589 15.8345C30.8799 17.0473 30.7536 18.2392 30.5009 19.4102C30.4377 19.7238 30.4377 19.7238 30.185 19.5356C28.2478 18.0928 26.7106 16.2945 25.4261 14.2663C23.552 11.3179 22.2885 8.09776 21.5094 4.71032C21.4462 4.41757 21.4884 4.12483 21.4884 3.83209C21.4884 3.30934 21.4884 2.78658 21.4884 2.28474C21.4884 2.0129 21.4884 2.0129 21.741 2.11746C25.9736 4.08301 28.7952 7.26136 30.2061 11.6734C30.6483 13.0326 30.8378 14.4126 30.8589 15.8345Z" fill="white"/>
<path d="M132.944 11.2547C132.944 13.513 132.944 15.7713 132.944 18.0296C132.944 18.2596 132.86 18.3224 132.65 18.3224C131.618 18.3224 130.586 18.3224 129.575 18.3224C129.344 18.3224 129.281 18.2596 129.281 18.0296C129.281 13.513 129.281 8.97553 129.281 4.45893C129.281 4.22892 129.365 4.20801 129.554 4.20801C130.586 4.20801 131.618 4.20801 132.671 4.20801C132.902 4.20801 132.966 4.27074 132.966 4.50075C132.944 6.73814 132.944 8.99644 132.944 11.2547Z" fill="white"/>
<path d="M21.3407 9.33146C21.5092 9.72875 21.6566 10.126 21.825 10.5024C23.0253 13.3462 24.5625 16.0018 26.6682 18.281C27.6158 19.3056 28.6476 20.2257 29.7847 20.9993C29.9742 21.1248 29.9742 21.2293 29.911 21.4175C29.4478 22.6512 28.816 23.8222 28.058 24.9095C27.9316 25.0977 27.8474 25.0768 27.7 24.9514C25.6785 23.2576 24.036 21.2712 22.6673 19.0338C21.825 17.6537 21.1091 16.2109 20.4984 14.7054C20.4352 14.559 20.4352 14.4126 20.4773 14.2663C20.9406 12.8862 21.0459 11.4434 21.2144 10.0006C21.2354 9.77057 21.2565 9.54056 21.2775 9.31055C21.3196 9.33146 21.3196 9.33146 21.3407 9.33146Z" fill="white"/>
<path d="M9.63296 9.24756C9.78036 10.8995 9.99093 12.4677 10.2857 14.036C10.3068 14.1614 10.3068 14.2869 10.2647 14.4124C8.85384 17.9462 6.93762 21.1454 4.17912 23.8219C3.80009 24.1774 3.4 24.512 3.02097 24.8675C2.89462 24.9929 2.83145 24.972 2.72617 24.8256C1.98916 23.7592 1.3785 22.6092 0.936296 21.3964C0.894182 21.2709 0.873124 21.1873 1.02053 21.1036C4.38969 18.8035 6.68494 15.6252 8.43269 12.0077C8.85384 11.1504 9.21181 10.2722 9.54873 9.37302C9.56979 9.35211 9.59084 9.3312 9.63296 9.24756Z" fill="white"/>
<path d="M85.6286 26.2684C69.962 26.2684 54.2954 26.2684 38.6288 26.2684C38.4393 26.2684 38.2708 26.2893 38.3129 26.0175C38.334 25.9338 38.355 25.892 38.4393 25.892C38.5024 25.892 38.5656 25.892 38.6498 25.892C69.9831 25.892 101.316 25.892 132.65 25.892C132.755 25.892 132.923 25.8084 132.965 25.9756C133.029 26.1847 132.965 26.2684 132.734 26.2684C130.67 26.2684 128.628 26.2684 126.564 26.2684C112.919 26.2684 99.2738 26.2684 85.6286 26.2684Z" fill="white"/>
<path d="M19.7825 16.7959C19.8878 16.8586 19.8878 16.9632 19.9299 17.0259C21.3618 20.0161 23.2149 22.7135 25.6575 25.0136C26.0576 25.39 26.4577 25.7245 26.8578 26.08C26.9841 26.1846 27.0052 26.2473 26.8788 26.3728C26.0576 27.251 25.1521 28.0456 24.1624 28.7356C24.0361 28.8192 23.9519 28.8192 23.8466 28.6938C21.7409 26.2891 19.9931 23.6544 18.6033 20.8106C18.5612 20.727 18.5191 20.6225 18.5823 20.5179C19.1719 19.3678 19.4246 18.1132 19.7615 16.8795C19.7615 16.8586 19.7615 16.8377 19.7825 16.7959Z" fill="white"/>
<path d="M10.8542 16.7544C10.9595 17.1517 11.0437 17.4863 11.1279 17.7999C11.3595 18.6154 11.5912 19.4309 11.8649 20.2464C11.907 20.3719 11.907 20.4973 11.8439 20.6228C10.4751 23.4456 8.7695 26.0594 6.72694 28.4432C6.57954 28.6105 6.49531 28.6105 6.32685 28.485C5.44245 27.8368 4.64227 27.1049 3.90527 26.2894C3.77892 26.164 3.77892 26.0803 3.92632 25.9758C6.87434 23.5084 9.0643 20.4764 10.7068 17.0471C10.7489 16.9635 10.791 16.9008 10.8542 16.7544Z" fill="white"/>
<path d="M17.7399 22.4209C17.8242 22.4627 17.8242 22.5464 17.8663 22.6091C19.1718 25.0556 20.709 27.3348 22.541 29.4467C22.6673 29.5931 22.6884 29.6558 22.4778 29.7604C21.446 30.2622 20.3931 30.6804 19.2771 30.9732C19.0876 31.015 19.0034 30.9732 18.8981 30.8268C17.8242 29.4049 16.8766 27.8994 16.0343 26.3311C15.9711 26.2265 15.929 26.122 16.0132 26.0174C16.7292 24.9928 17.1293 23.801 17.6136 22.6509C17.6557 22.5673 17.6768 22.4836 17.7399 22.4209Z" fill="white"/>
<path d="M12.623 22.3999C12.7493 22.7136 12.8757 23.0272 13.002 23.3199C13.3389 24.1564 13.7179 24.9719 14.118 25.7873C14.1812 25.9128 14.1812 26.0174 14.118 26.1637C13.2757 27.732 12.3282 29.2375 11.2753 30.6594C11.17 30.7849 11.0858 30.8267 10.9384 30.7849C9.90658 30.4712 8.93794 30.053 7.99037 29.5512C7.88508 29.4884 7.80085 29.4675 7.92719 29.3212C9.73812 27.2092 11.2753 24.93 12.5598 22.4626C12.5598 22.4417 12.5809 22.4417 12.623 22.3999Z" fill="white"/>
<path d="M15.3816 11.464C15.1921 10.6276 15.0658 9.85391 14.9184 9.05932C14.4341 6.40373 14.4341 3.72723 14.4551 1.02982C14.4551 0.862535 14.4972 0.799805 14.6657 0.799805C15.1921 0.799805 15.7186 0.799805 16.2239 0.799805C16.3924 0.799805 16.4556 0.883445 16.4556 1.05073C16.4345 2.59808 16.5187 4.14543 16.4135 5.69278C16.2661 7.59561 16.0765 9.47752 15.4448 11.2967C15.4238 11.3385 15.4238 11.3803 15.3816 11.464Z" fill="white"/>
<path d="M19.3824 11.5475C19.0244 10.3974 18.7507 9.26828 18.5191 8.13913C18.2874 6.98907 18.0558 5.83901 17.9926 4.66804C17.9505 3.66436 17.9716 2.63976 17.9716 1.63607C17.9716 0.946034 17.9716 0.946034 18.6454 1.09241C19.0244 1.17605 19.4035 1.2806 19.8036 1.38515C19.9299 1.42697 19.9931 1.51061 19.9931 1.67789C19.972 3.64345 20.0352 5.609 19.951 7.57456C19.8878 8.87099 19.7614 10.1465 19.4456 11.4011C19.4245 11.422 19.4035 11.4639 19.3824 11.5475Z" fill="white"/>
<path d="M11.3385 11.4431C11.2543 10.774 11.1701 10.1048 11.1069 9.4357C11.0227 8.45293 10.9595 7.47015 10.9384 6.48737C10.8963 4.87729 10.9805 3.2672 10.9384 1.65712C10.9384 1.51075 11.0016 1.44802 11.149 1.4062C11.6754 1.25983 12.2229 1.13437 12.7704 1.02982C12.8968 1.00891 12.981 1.02982 12.981 1.17619C12.9599 2.47262 13.0442 3.76905 12.9178 5.06548C12.7494 6.65465 12.4546 8.202 12.0545 9.74936C11.9071 10.3348 11.6333 10.8994 11.4017 11.464C11.3806 11.4431 11.3596 11.4431 11.3385 11.4431Z" fill="white"/>
<path d="M15.3394 16.7544C15.7184 17.7999 16.0554 18.8036 16.5186 19.7655C16.8134 20.3509 16.8134 20.8319 16.5607 21.4174C16.1396 22.3583 15.8658 23.362 15.2762 24.2402C15.2341 24.303 15.192 24.3866 15.1499 24.4493C15.0657 24.4075 15.0446 24.3239 15.0236 24.2611C14.5182 23.1738 14.076 22.0656 13.6548 20.9364C13.6127 20.8319 13.5706 20.7273 13.6548 20.6019C14.3918 19.4518 14.813 18.1554 15.2762 16.8799C15.2762 16.8799 15.2973 16.838 15.3394 16.7544Z" fill="white"/>
<path d="M17.403 9.9375C17.6557 10.8785 17.8873 11.7776 18.1821 12.6349C18.3506 13.1577 18.5401 13.6595 18.7296 14.1823C18.7928 14.3286 18.8138 14.475 18.7717 14.6423C18.5822 15.5414 18.3716 16.4615 18.14 17.3606C18.0137 17.7997 17.8241 18.197 17.6346 18.657C17.3188 17.9252 17.0661 17.2561 16.8134 16.5451C16.6028 15.9387 16.4133 15.3114 16.2027 14.705C16.1606 14.6005 16.1606 14.4959 16.2027 14.3914C16.8134 13.0113 17.0661 11.5267 17.3398 10.063C17.3398 10.0421 17.3609 10.0211 17.403 9.9375Z" fill="white"/>
<path d="M13.5706 9.97949C13.6759 10.5441 13.7812 11.1086 13.9075 11.6523C14.0971 12.4678 14.3076 13.2833 14.5182 14.0779C14.5603 14.2033 14.5603 14.3288 14.5182 14.4752C14.2234 15.458 13.9075 16.4198 13.5496 17.3608C13.3811 17.779 13.1495 18.1554 12.96 18.5527C12.8336 18.5108 12.8547 18.4063 12.8336 18.3436C12.4967 17.2144 12.223 16.0644 11.9703 14.8934C11.9492 14.7679 11.9282 14.6634 11.9913 14.5588C12.7073 13.1369 13.1284 11.5896 13.5285 10.0631C13.5075 10.0422 13.5075 10.0004 13.5706 9.97949Z" fill="white"/>
<path d="M17.4452 31.287C16.8977 31.3915 16.3923 31.4124 15.8869 31.4333C14.9183 31.4751 13.9286 31.3915 12.96 31.2451C12.8547 31.2242 12.6652 31.2451 12.8336 31.036C13.6128 29.9487 14.3287 28.8196 15.0025 27.6486C15.0236 27.6277 15.0236 27.6068 15.0657 27.5649C15.7606 28.8614 16.5608 30.0742 17.4452 31.287Z" fill="white"/>
<path d="M56.2538 22.7971C56.0853 23.1525 55.9169 23.5289 55.7484 23.8844C55.6853 24.0098 55.6431 24.1144 55.4747 24.1144C55.3062 24.1144 55.2641 24.0098 55.222 23.9053C55.0956 23.6126 54.9482 23.3198 54.8008 23.0271C54.7587 22.9643 54.7587 22.8598 54.6324 22.818C54.6324 23.1944 54.6324 23.5707 54.6324 23.9262C54.6324 24.0308 54.6324 24.1353 54.6324 24.2608C54.6324 24.3862 54.5692 24.4071 54.4639 24.4071C54.3586 24.4071 54.2744 24.3862 54.2744 24.2608C54.2744 23.4871 54.2744 22.7134 54.2744 21.9188C54.2744 21.8352 54.3165 21.7934 54.4218 21.7725C54.5482 21.7725 54.6534 21.7725 54.7166 21.9188C54.9272 22.3998 55.1588 22.8807 55.3905 23.3616C55.4326 23.4244 55.4326 23.5498 55.5168 23.5498C55.601 23.5498 55.601 23.4244 55.6431 23.3616C55.8537 22.9016 56.0853 22.4416 56.2749 21.9816C56.338 21.8143 56.4644 21.7725 56.6118 21.8143C56.7802 21.8561 56.7171 21.9816 56.7171 22.0861C56.7171 22.7971 56.7171 23.4871 56.7171 24.198C56.7171 24.3235 56.7171 24.449 56.5275 24.4281C56.338 24.4281 56.3591 24.3235 56.3591 24.198C56.3591 23.7589 56.3591 23.3198 56.3591 22.8807C56.317 22.818 56.2959 22.818 56.2538 22.7971Z" fill="white"/>
<path d="M41.8928 29.6559C41.8928 29.3005 41.8928 28.945 41.8928 28.6104C41.8928 28.4013 41.8928 28.1713 41.8928 27.9622C41.8928 27.8367 41.9349 27.7949 42.0612 27.7949C42.1876 27.7949 42.2718 27.8367 42.2718 27.9831C42.2718 28.7359 42.2718 29.4886 42.2718 30.2414C42.2718 30.3041 42.2929 30.4087 42.1665 30.4087C42.0402 30.4087 41.8928 30.4505 41.8086 30.3041C41.5348 29.9068 41.2611 29.5096 41.0084 29.1332C40.882 28.9659 40.7768 28.7986 40.6504 28.6104C40.5451 28.6941 40.5872 28.7568 40.5872 28.8404C40.5872 29.2795 40.5872 29.7187 40.5872 30.1787C40.5872 30.3041 40.6083 30.4296 40.3977 30.4296C40.2082 30.4296 40.2082 30.3251 40.2082 30.1996C40.2082 29.4886 40.2082 28.7568 40.2082 28.0458C40.2082 27.9622 40.1661 27.8367 40.3135 27.8367C40.4188 27.8158 40.5241 27.8158 40.6083 27.9413C40.6504 28.004 40.7136 28.0877 40.7557 28.1504C41.0716 28.6104 41.3874 29.0704 41.7243 29.5305C41.7454 29.5305 41.7664 29.635 41.8928 29.6559Z" fill="white"/>
<path d="M67.3722 29.6348C67.3722 29.0912 67.3722 28.5475 67.3722 27.9829C67.3722 27.8575 67.3722 27.7529 67.5617 27.7529C67.7512 27.7529 67.7512 27.8575 67.7512 27.9829C67.7512 28.6939 67.7512 29.4048 67.7512 30.1158C67.7512 30.1994 67.8144 30.3458 67.6459 30.3667C67.5196 30.3876 67.3722 30.4085 67.2669 30.2412C66.951 29.7603 66.6141 29.2794 66.2772 28.7984C66.2351 28.7148 66.1719 28.6521 66.1087 28.5893C66.0035 28.6521 66.0456 28.7357 66.0456 28.7984C66.0456 29.2585 66.0456 29.7185 66.0456 30.1785C66.0456 30.304 66.0245 30.3876 65.8771 30.3876C65.7297 30.3876 65.6665 30.3249 65.6665 30.1785C65.6665 29.4676 65.6665 28.7357 65.6665 28.0248C65.6665 27.9411 65.6034 27.8157 65.7508 27.7738C65.8771 27.732 65.9824 27.7738 66.0666 27.8993C66.4035 28.4221 66.7615 28.9239 67.1195 29.4257C67.1616 29.5094 67.2248 29.5721 67.2879 29.6348C67.3301 29.6558 67.3511 29.6558 67.3722 29.6348Z" fill="white"/>
<path d="M120.036 23.6548C120.036 23.0902 120.036 22.5465 120.036 22.0029C120.036 21.8565 120.015 21.752 120.226 21.752C120.415 21.752 120.415 21.8774 120.415 22.0029C120.415 22.7138 120.415 23.4248 120.415 24.1357C120.415 24.2194 120.479 24.3448 120.331 24.3657C120.184 24.3866 120.036 24.4075 119.931 24.2403C119.615 23.7593 119.278 23.2784 118.962 22.8184C118.92 22.7347 118.857 22.672 118.773 22.5674C118.71 22.7138 118.731 22.8393 118.731 22.9647C118.731 23.3829 118.731 23.7802 118.731 24.1984C118.731 24.3448 118.689 24.4075 118.52 24.4075C118.373 24.4075 118.331 24.3448 118.331 24.2194C118.331 23.4875 118.331 22.7556 118.331 22.0029C118.331 21.9192 118.289 21.8147 118.415 21.7938C118.52 21.7729 118.647 21.7729 118.731 21.8983C119.026 22.3583 119.341 22.7975 119.657 23.2366C119.784 23.362 119.847 23.5293 120.036 23.6548Z" fill="white"/>
<path d="M108.813 23.613C108.813 23.0693 108.813 22.5047 108.813 21.9611C108.813 21.8356 108.813 21.752 108.981 21.752C109.15 21.752 109.192 21.7938 109.192 21.9611C109.192 22.672 109.192 23.3829 109.192 24.0939C109.192 24.1775 109.276 24.3239 109.086 24.3657C108.939 24.3866 108.813 24.4075 108.707 24.2403C108.392 23.7593 108.076 23.2993 107.739 22.8393C107.676 22.7556 107.634 22.672 107.57 22.5884C107.465 22.6511 107.507 22.7347 107.507 22.7975C107.507 23.2575 107.507 23.7175 107.507 24.1775C107.507 24.3239 107.465 24.3866 107.318 24.3866C107.149 24.3866 107.128 24.303 107.128 24.1775C107.128 23.4457 107.128 22.7138 107.128 22.0029C107.128 21.9192 107.086 21.7938 107.233 21.7938C107.36 21.7729 107.444 21.7938 107.528 21.9192C107.886 22.442 108.244 22.9438 108.602 23.4666C108.644 23.5293 108.707 23.592 108.75 23.6757C108.771 23.6339 108.792 23.613 108.813 23.613Z" fill="white"/>
<path d="M131.281 28.6313C131.281 29.1541 131.281 29.6559 131.281 30.1787C131.281 30.3669 131.218 30.4087 131.049 30.4087C130.944 30.4087 130.902 30.3669 130.902 30.2623C130.902 29.4886 130.902 28.715 130.902 27.9622C130.902 27.8995 130.902 27.8158 130.986 27.8158C131.091 27.8158 131.197 27.7949 131.281 27.8995C131.449 28.1504 131.618 28.3804 131.786 28.6313C132.039 28.9868 132.271 29.3423 132.586 29.6768C132.586 29.2377 132.586 28.8195 132.586 28.3804C132.586 28.2549 132.586 28.1504 132.586 28.0249C132.565 27.8786 132.607 27.7949 132.797 27.7949C132.965 27.7949 132.987 27.8786 132.987 28.0249C132.987 28.7359 132.987 29.4677 132.987 30.1787C132.987 30.2623 133.05 30.3878 132.902 30.4087C132.755 30.4296 132.607 30.4505 132.502 30.2832C132.186 29.8023 131.87 29.3423 131.534 28.8823C131.47 28.7986 131.428 28.715 131.365 28.6313C131.323 28.6104 131.302 28.6313 131.281 28.6313Z" fill="white"/>
<path d="M73.3733 22.5674C73.3733 23.1111 73.3733 23.6339 73.3733 24.1566C73.3733 24.2612 73.3944 24.3657 73.2049 24.3866C73.0364 24.3866 72.9943 24.303 72.9943 24.1566C72.9943 23.4457 72.9943 22.7138 72.9943 22.0029C72.9943 21.9192 72.9522 21.7938 73.0785 21.7729C73.2049 21.752 73.3101 21.7729 73.3733 21.8774C73.7313 22.4002 74.0893 22.9229 74.4472 23.4248C74.4894 23.4875 74.5315 23.592 74.6578 23.6339C74.6578 23.4666 74.6578 23.2993 74.6578 23.132C74.6578 22.7347 74.6578 22.3374 74.6578 21.9611C74.6578 21.8147 74.6999 21.752 74.8473 21.752C75.0158 21.752 75.0368 21.8356 75.0368 21.9611C75.0368 22.672 75.0368 23.362 75.0368 24.073C75.0368 24.1775 75.1211 24.3239 74.9316 24.3657C74.7631 24.4075 74.6368 24.3866 74.5315 24.1984C74.2156 23.7175 73.8787 23.2366 73.5628 22.7766C73.5418 22.7138 73.5207 22.6302 73.3733 22.5674Z" fill="white"/>
<path d="M52.4214 29.6558C52.4214 29.2376 52.4214 28.8194 52.4214 28.4221C52.4214 28.3176 52.4214 28.213 52.4214 28.0876C52.4214 27.9621 52.3582 27.7739 52.6109 27.7739C52.8636 27.7739 52.8004 27.9412 52.8004 28.0667C52.8004 28.7358 52.8004 29.4258 52.8004 30.095C52.8004 30.1995 52.8846 30.3459 52.7162 30.3877C52.5477 30.4295 52.4214 30.3877 52.3161 30.2204C52.0002 29.7395 51.6633 29.2585 51.3474 28.7985C51.3053 28.7358 51.2632 28.6522 51.179 28.6103C51.1158 28.8194 51.1579 29.0076 51.1579 29.1958C51.1579 29.5095 51.1579 29.8231 51.1579 30.1577C51.1579 30.3041 51.1579 30.4086 50.9684 30.4086C50.7789 30.4086 50.8 30.3041 50.8 30.1786C50.8 29.4676 50.8 28.7358 50.8 28.0248C50.8 27.9412 50.7578 27.8157 50.8842 27.7948C51.0105 27.7739 51.1158 27.7948 51.179 27.8994C51.537 28.4221 51.8949 28.924 52.2529 29.4467C52.295 29.5095 52.3582 29.5931 52.4214 29.6558C52.4003 29.6558 52.3792 29.6558 52.4214 29.6558Z" fill="white"/>
<path d="M66.0664 22.5674C66.0664 23.1111 66.0664 23.6339 66.0664 24.1357C66.0664 24.2194 66.1085 24.3448 65.9611 24.3657C65.7926 24.3866 65.7084 24.3657 65.7084 24.1566C65.7295 23.4457 65.7084 22.7138 65.7084 22.0029C65.7084 21.9192 65.6663 21.7938 65.7926 21.7729C65.919 21.752 66.0243 21.752 66.0874 21.8774C66.4454 22.4002 66.8034 22.902 67.1614 23.4248C67.2035 23.4875 67.2456 23.592 67.3719 23.6548C67.3719 23.2784 67.3719 22.9229 67.3719 22.5674C67.3719 22.3583 67.3719 22.1702 67.3719 21.9611C67.3719 21.8147 67.414 21.752 67.5614 21.752C67.7299 21.752 67.751 21.8147 67.751 21.9611C67.751 22.672 67.751 23.4039 67.751 24.1148C67.751 24.1984 67.8141 24.3448 67.6667 24.3657C67.5404 24.3866 67.393 24.4075 67.2877 24.2612C66.9718 23.7802 66.6349 23.2993 66.298 22.8184C66.2348 22.7347 66.1927 22.6511 66.0664 22.5674Z" fill="white"/>
<path d="M45.6408 21.7515C45.7882 21.7515 45.9356 21.7515 46.062 21.7515C46.4199 21.7724 46.6726 21.9397 46.7569 22.2325C46.8621 22.567 46.7779 22.9643 46.5042 23.1525C46.3778 23.2361 46.3778 23.2989 46.441 23.4034C46.5463 23.6334 46.6516 23.8634 46.7569 24.1144C46.7779 24.1771 46.9043 24.3026 46.799 24.3444C46.6726 24.3862 46.5042 24.4489 46.3989 24.2398C46.2936 23.9889 46.1883 23.7589 46.083 23.508C45.9988 23.3407 45.5776 23.2152 45.4092 23.3198C45.346 23.3616 45.3671 23.4452 45.3671 23.508C45.3671 23.738 45.3671 23.968 45.3671 24.2189C45.3671 24.3653 45.2828 24.3653 45.1776 24.3653C45.0723 24.3653 44.988 24.3444 44.988 24.198C44.988 23.4452 44.988 22.6716 44.988 21.9188C44.988 21.7933 45.0302 21.7306 45.1565 21.7515C45.325 21.7724 45.4934 21.7515 45.6408 21.7515ZM45.3671 22.5252C45.3671 22.6088 45.3671 22.7134 45.3671 22.797C45.3671 22.9016 45.4092 22.9643 45.5145 22.9643C45.704 22.9643 45.8935 22.9852 46.083 22.9434C46.3146 22.9225 46.441 22.7552 46.441 22.5252C46.441 22.3161 46.3146 22.1906 46.1041 22.1488C45.9777 22.1279 45.8724 22.1279 45.7461 22.1279C45.3039 22.107 45.3671 22.0861 45.3671 22.5252Z" fill="white"/>
<path d="M82.4912 23.0693C82.4912 22.6929 82.4912 22.3375 82.4912 21.9611C82.4912 21.8147 82.5333 21.752 82.6807 21.752C82.9124 21.752 83.144 21.7311 83.3967 21.752C83.7336 21.7729 84.0284 21.9402 84.1969 22.2329C84.5338 22.8184 84.4706 23.6339 84.0284 24.073C83.8599 24.2403 83.6494 24.3239 83.4177 24.3448C83.165 24.3657 82.9124 24.3448 82.6597 24.3448C82.5333 24.3448 82.4912 24.303 82.4912 24.1566C82.4912 23.8221 82.4912 23.4457 82.4912 23.0693ZM82.8492 23.0693C82.8492 23.3202 82.8492 23.5921 82.8492 23.843C82.8492 23.9684 82.8913 24.0312 83.0176 24.0312C83.1861 24.0312 83.3756 24.0312 83.5441 23.9684C83.9231 23.7803 84.1126 23.2157 83.9652 22.6929C83.8389 22.2747 83.4177 22.0447 82.9755 22.1284C82.8492 22.1493 82.8492 22.2329 82.8492 22.3165C82.8492 22.5466 82.8492 22.8184 82.8492 23.0693Z" fill="white"/>
<path d="M74.4471 29.0706C74.4471 28.6942 74.4471 28.3387 74.4471 27.9623C74.4471 27.8787 74.4261 27.7741 74.5524 27.7741C74.8893 27.7741 75.2262 27.7323 75.5632 27.8159C75.9843 27.9205 76.2159 28.2342 76.3212 28.6524C76.4265 29.1751 76.4054 29.6979 76.0054 30.1161C75.8369 30.2833 75.6053 30.367 75.3736 30.3879C75.142 30.4088 74.9104 30.3879 74.6577 30.3879C74.5103 30.3879 74.4471 30.3461 74.4471 30.1788C74.4471 29.8233 74.4471 29.4469 74.4471 29.0706ZM74.8261 29.0706C74.8261 29.3424 74.8261 29.6142 74.8261 29.8651C74.8261 29.9488 74.8261 30.0324 74.9525 30.0324C75.0999 30.0324 75.2473 30.0533 75.3736 30.0115C75.8369 29.907 76.0896 29.3424 75.9632 28.7569C75.8369 28.276 75.4368 28.0251 74.9525 28.1087C74.8261 28.1296 74.8261 28.1923 74.8261 28.2969C74.8261 28.5687 74.8261 28.8196 74.8261 29.0706Z" fill="white"/>
<path d="M116.667 23.0481C116.688 23.4036 116.604 23.7382 116.393 24.01C115.909 24.6373 114.961 24.5328 114.625 23.8009C114.372 23.2781 114.393 22.7554 114.667 22.2326C114.856 21.8772 115.298 21.6681 115.741 21.7099C116.141 21.7517 116.52 22.1072 116.625 22.5463C116.667 22.7136 116.688 22.9018 116.667 23.0481ZM116.288 23.069C116.288 22.9018 116.288 22.7345 116.225 22.5672C116.12 22.2535 115.867 22.0863 115.572 22.0863C115.277 22.0863 115.025 22.2745 114.919 22.5672C114.814 22.8808 114.814 23.1945 114.919 23.5082C115.025 23.8218 115.277 24.01 115.593 24.01C115.909 24.01 116.141 23.8218 116.246 23.4872C116.288 23.3827 116.309 23.2363 116.288 23.069Z" fill="white"/>
<path d="M110.876 29.1329C110.855 28.7357 110.897 28.4011 111.15 28.1293C111.676 27.502 112.624 27.6483 112.94 28.4011C113.151 28.9448 113.151 29.5302 112.793 30.0321C112.561 30.3666 112.056 30.513 111.719 30.4294C111.255 30.283 110.939 29.9066 110.876 29.4048C110.876 29.3002 110.876 29.1957 110.876 29.1329ZM111.234 29.1329C111.234 29.1957 111.255 29.3421 111.276 29.4675C111.34 29.7812 111.613 30.0321 111.887 30.053C112.203 30.0739 112.498 29.9066 112.603 29.593C112.729 29.2375 112.729 28.8611 112.561 28.5056C112.435 28.2547 112.245 28.1293 111.95 28.1293C111.676 28.1293 111.487 28.2756 111.34 28.5056C111.255 28.6729 111.234 28.882 111.234 29.1329Z" fill="white"/>
<path d="M82.8701 29.091C82.8912 29.4464 82.828 29.7601 82.5964 30.0319C82.091 30.6383 81.1856 30.5338 80.8276 29.8228C80.5538 29.2792 80.6381 28.4428 80.996 28.0664C81.2698 27.7736 81.6278 27.6482 82.0068 27.7527C82.4279 27.8573 82.6806 28.1291 82.807 28.5473C82.8701 28.7355 82.8701 28.9237 82.8701 29.091ZM82.5122 29.091C82.5122 28.9655 82.5122 28.8401 82.4911 28.7146C82.4279 28.4009 82.1753 28.15 81.9015 28.1082C81.5856 28.0664 81.2908 28.2337 81.1645 28.5473C81.0382 28.9028 81.0171 29.2583 81.1645 29.5928C81.2908 29.8856 81.5014 30.0528 81.8173 30.0319C82.1331 30.011 82.3227 29.8228 82.4279 29.5719C82.4911 29.4255 82.4911 29.2583 82.5122 29.091Z" fill="white"/>
<path d="M91.3562 23.09C91.3773 23.4246 91.3141 23.7591 91.0825 24.031C90.5771 24.6374 89.6716 24.5328 89.3137 23.8219C89.0399 23.2782 89.1242 22.4418 89.4821 22.0654C89.7559 21.7727 90.1138 21.6472 90.4929 21.7517C90.914 21.8563 91.1878 22.1281 91.2931 22.5672C91.3562 22.7345 91.3562 22.9018 91.3562 23.09ZM90.9772 22.9854C90.9772 22.9436 90.9772 22.8182 90.9561 22.7136C90.893 22.3791 90.6403 22.1281 90.3455 22.0863C90.0296 22.0445 89.7348 22.2118 89.6085 22.5463C89.4821 22.8809 89.4821 23.2155 89.6085 23.55C89.7138 23.8637 89.9875 24.031 90.3034 24.031C90.5982 24.031 90.8298 23.8219 90.9351 23.5082C90.9983 23.3618 90.9772 23.2155 90.9772 22.9854Z" fill="white"/>
<path d="M129.407 29.0913C129.449 29.4467 129.365 29.7604 129.154 30.0322C128.67 30.6595 127.722 30.555 127.385 29.844C127.112 29.2795 127.112 28.6731 127.491 28.1503C127.743 27.7948 128.143 27.6694 128.565 27.7739C129.028 27.8785 129.344 28.2967 129.407 28.7985C129.428 28.8822 129.407 29.0076 129.407 29.0913ZM129.07 29.0913C129.091 28.9449 129.049 28.7985 129.028 28.6731C128.944 28.3594 128.691 28.1294 128.396 28.1294C128.08 28.1085 127.828 28.2758 127.701 28.6103C127.596 28.9449 127.575 29.2795 127.722 29.614C127.849 29.9277 128.101 30.095 128.438 30.074C128.712 30.0531 128.965 29.8231 129.049 29.5304C129.049 29.3631 129.07 29.2376 129.07 29.0913Z" fill="white"/>
<path d="M49.2628 29.091C49.2839 29.4465 49.2207 29.7811 48.9891 30.0529C48.4837 30.6593 47.5572 30.5338 47.2413 29.8229C46.9886 29.2583 46.9886 28.6728 47.3466 28.1501C47.5782 27.7946 48.0836 27.6482 48.4416 27.7528C48.9259 27.8992 49.2417 28.2965 49.2628 28.7983C49.2628 28.9028 49.2628 29.0074 49.2628 29.091ZM48.9048 29.091C48.8838 28.9656 48.8838 28.8192 48.8627 28.6937C48.7785 28.3801 48.5258 28.1501 48.231 28.1292C47.9151 28.1083 47.6414 28.2755 47.5361 28.5892C47.4098 28.9447 47.4098 29.3001 47.5572 29.6347C47.6835 29.9065 47.8941 30.0738 48.2099 30.0738C48.5258 30.0738 48.7153 29.8856 48.8417 29.6138C48.9048 29.4465 48.9048 29.2583 48.9048 29.091Z" fill="white"/>
<path d="M111.024 23.0688C111.024 22.6924 111.024 22.3369 111.024 21.9605C111.024 21.7933 111.087 21.7305 111.234 21.7514C111.403 21.7514 111.592 21.7514 111.761 21.7514C112.266 21.7514 112.603 21.9605 112.814 22.4206C113.066 22.9642 112.94 23.717 112.54 24.0934C112.371 24.2607 112.14 24.3443 111.908 24.3652C111.676 24.3861 111.445 24.3652 111.234 24.3652C111.087 24.3652 111.024 24.3234 111.024 24.1561C111.024 23.8006 111.024 23.4452 111.024 23.0688ZM111.382 23.0479C111.382 23.2988 111.382 23.5706 111.382 23.8215C111.382 23.9679 111.445 24.0306 111.571 24.0097C111.719 24.0097 111.845 24.0306 111.992 23.9679C112.435 23.8215 112.666 23.2779 112.519 22.7342C112.392 22.2533 112.013 22.0024 111.529 22.086C111.403 22.1069 111.382 22.1906 111.382 22.2742C111.382 22.5669 111.382 22.8179 111.382 23.0479Z" fill="white"/>
<path d="M44.4197 27.7738C45.1988 27.732 45.4936 28.0666 45.6621 28.4848C45.8937 29.0494 45.7463 29.7603 45.3462 30.1367C45.1777 30.304 44.9461 30.3876 44.7145 30.3876C44.5039 30.3876 44.3144 30.3876 44.1038 30.3876C43.9143 30.4085 43.8301 30.3458 43.8301 30.1367C43.8301 29.4257 43.8301 28.7148 43.8301 28.0039C43.8301 27.8157 43.8932 27.7529 44.0828 27.7529C44.2091 27.7948 44.3144 27.7738 44.4197 27.7738ZM44.2091 29.0703C44.2091 29.3212 44.2091 29.593 44.2091 29.8439C44.2091 29.9485 44.2091 30.0321 44.3355 30.0321C44.5039 30.0321 44.6513 30.053 44.7987 30.0112C45.2409 29.8649 45.4725 29.3421 45.3251 28.8193C45.1988 28.2966 44.8408 28.0666 44.3144 28.1502C44.1881 28.1711 44.167 28.2339 44.167 28.3384C44.2091 28.5684 44.2091 28.8193 44.2091 29.0703Z" fill="white"/>
<path d="M48.4836 23.0693C48.4836 22.7138 48.4836 22.3583 48.4836 21.982C48.4836 21.8356 48.5047 21.752 48.6732 21.752C48.8416 21.752 48.8627 21.8356 48.8627 21.982C48.8627 22.1911 48.8627 22.4002 48.8627 22.6093C48.8627 22.7556 48.9258 22.8184 49.0732 22.8184C49.3049 22.8184 49.5365 22.8184 49.7471 22.8184C49.9155 22.8184 49.9577 22.7556 49.9577 22.5884C49.9577 22.3793 49.9577 22.1492 49.9577 21.9401C49.9577 21.7938 50.0208 21.7729 50.1472 21.7729C50.2735 21.7729 50.3577 21.7938 50.3577 21.9401C50.3577 22.6929 50.3577 23.4666 50.3577 24.2194C50.3577 24.3657 50.2735 24.3866 50.1682 24.3866C50.0629 24.3866 49.9787 24.3866 49.9787 24.2194C49.9787 23.9266 49.9787 23.6548 49.9787 23.362C49.9787 23.2157 49.9366 23.1529 49.7681 23.1529C49.5365 23.1529 49.3049 23.1529 49.0943 23.1529C48.9469 23.1529 48.8837 23.1948 48.8837 23.362C48.8837 23.6339 48.8837 23.9057 48.8837 24.1984C48.8837 24.3448 48.8206 24.3866 48.6942 24.3866C48.5679 24.3866 48.5047 24.3448 48.5047 24.1984C48.4836 23.8221 48.4836 23.4457 48.4836 23.0693Z" fill="white"/>
<path d="M95.0833 21.7938C94.7885 22.1074 94.5358 22.4002 94.2621 22.6511C94.0936 22.7975 94.1147 22.902 94.241 23.0693C94.4937 23.4039 94.7254 23.7802 94.978 24.1148C95.0202 24.1775 95.0833 24.2403 95.1044 24.3448C94.8728 24.3866 94.6832 24.3866 94.5358 24.1357C94.3674 23.8221 94.1358 23.5502 93.9462 23.2575C93.862 23.132 93.8199 23.132 93.6935 23.2366C93.3777 23.4666 93.3777 23.8011 93.3987 24.1357C93.3987 24.2612 93.4198 24.3657 93.2303 24.3657C93.1039 24.3657 93.0408 24.3239 93.0408 24.1775C93.0408 23.4248 93.0408 22.672 93.0408 21.9192C93.0408 21.7938 93.0829 21.752 93.2092 21.752C93.3356 21.752 93.3987 21.7938 93.3987 21.9192C93.3987 22.212 93.3987 22.4838 93.3987 22.7766C93.3987 22.8184 93.3777 22.8811 93.4409 22.9229C93.504 22.9647 93.5461 22.8811 93.5883 22.8393C93.862 22.5675 94.1358 22.2956 94.3674 22.0029C94.5569 21.752 94.7675 21.731 95.0833 21.7938Z" fill="white"/>
<path d="M105.507 30.4294C105.212 30.4294 104.938 30.3667 104.707 30.1785C104.643 30.1158 104.496 30.074 104.622 29.9485C104.707 29.8649 104.749 29.7185 104.938 29.8858C105.191 30.0949 105.486 30.1158 105.802 30.0112C105.97 29.9485 106.033 29.8439 106.033 29.6767C106.033 29.5094 105.949 29.4048 105.802 29.363C105.612 29.3003 105.423 29.2585 105.212 29.1957C104.812 29.0703 104.559 28.7566 104.601 28.4221C104.664 28.0457 104.98 27.7738 105.401 27.7529C105.696 27.7529 105.991 27.7948 106.244 27.9411C106.37 28.0248 106.349 28.0875 106.286 28.192C106.223 28.2757 106.181 28.3593 106.054 28.2757C105.865 28.1502 105.654 28.1293 105.423 28.1293C105.212 28.1293 105.022 28.213 105.001 28.443C104.959 28.673 105.149 28.7775 105.338 28.8403C105.486 28.8821 105.654 28.9239 105.802 28.9657C106.265 29.0912 106.454 29.363 106.412 29.823C106.37 30.1367 106.033 30.4294 105.633 30.4503C105.591 30.4294 105.549 30.4294 105.507 30.4294Z" fill="white"/>
<path d="M108.581 27.7529C108.918 27.7529 109.15 27.8157 109.381 27.9202C109.487 27.9829 109.55 28.0248 109.466 28.1502C109.402 28.2339 109.36 28.3593 109.213 28.2548C109.023 28.1293 108.792 28.1084 108.56 28.1293C108.35 28.1502 108.202 28.2339 108.181 28.443C108.16 28.6312 108.286 28.7566 108.455 28.7984C108.623 28.8612 108.792 28.903 108.96 28.9448C109.445 29.0703 109.592 29.3003 109.571 29.7812C109.55 30.0949 109.276 30.3876 108.876 30.4294C108.518 30.4713 108.16 30.4085 107.844 30.1785C107.781 30.1158 107.655 30.053 107.802 29.9485C107.886 29.8858 107.928 29.7394 108.097 29.8858C108.35 30.0949 108.665 30.1158 108.981 30.0112C109.129 29.9485 109.213 29.8439 109.213 29.6767C109.213 29.5094 109.129 29.4048 108.981 29.363C108.813 29.3003 108.644 29.2585 108.476 29.2166C108.013 29.0912 107.739 28.7775 107.781 28.4221C107.823 28.0039 108.16 27.7529 108.581 27.7529Z" fill="white"/>
<path d="M58.212 30.4294C57.9172 30.4294 57.6224 30.3667 57.3908 30.1576C57.3276 30.0949 57.2013 30.0322 57.3487 29.9276C57.4329 29.8649 57.475 29.7185 57.6435 29.8649C57.8751 30.074 58.191 30.0949 58.5068 30.0112C58.6753 29.9694 58.7595 29.844 58.7595 29.6767C58.7595 29.5094 58.6753 29.3839 58.5068 29.3421C58.3173 29.2794 58.1278 29.2376 57.9172 29.1748C57.5171 29.0703 57.2855 28.7357 57.3276 28.4221C57.3697 28.0457 57.7067 27.7529 58.1067 27.7529C58.4226 27.732 58.6964 27.7948 58.9701 27.9411C59.0754 28.0039 59.0754 28.0666 59.0122 28.1502C58.949 28.2339 58.928 28.3593 58.7806 28.2548C58.57 28.1084 58.3173 28.0875 58.0857 28.1084C57.8962 28.1293 57.7698 28.213 57.7277 28.4012C57.6856 28.5894 57.8119 28.7148 57.9804 28.7775C58.1489 28.8403 58.3384 28.8821 58.5068 28.9239C58.9912 29.0494 59.1596 29.3003 59.1175 29.7812C59.0964 30.0949 58.7385 30.3876 58.3384 30.4085C58.2963 30.4294 58.2542 30.4294 58.212 30.4294Z" fill="white"/>
<path d="M97.2524 30.4295C96.9365 30.4295 96.6628 30.3459 96.4101 30.1577C96.3469 30.0949 96.2627 30.0322 96.389 29.9277C96.4732 29.8649 96.5154 29.7186 96.6628 29.8649C96.9154 30.074 97.2313 30.1159 97.5472 30.0113C97.7156 29.9695 97.7998 29.844 97.7998 29.6767C97.7998 29.5095 97.6946 29.4049 97.5472 29.3422C97.3576 29.2795 97.1681 29.2376 96.9576 29.1749C96.5575 29.0494 96.3258 28.7567 96.389 28.3803C96.4311 28.0248 96.747 27.753 97.1471 27.7321C97.4419 27.7112 97.7367 27.753 97.9894 27.8994C98.0736 27.9412 98.1789 28.0039 98.0736 28.1294C98.0104 28.213 97.9683 28.3594 97.8209 28.2339C97.6314 28.1085 97.4208 28.0876 97.1892 28.0876C96.9786 28.0876 96.8312 28.1712 96.7891 28.3803C96.747 28.6103 96.8944 28.7149 97.0839 28.7776C97.2524 28.8403 97.4208 28.8822 97.5893 28.924C98.0315 29.0494 98.221 29.3213 98.1789 29.7813C98.1368 30.1159 97.8209 30.3668 97.4208 30.4086C97.3576 30.4295 97.2945 30.4295 97.2524 30.4295Z" fill="white"/>
<path d="M41.7032 23.0484C41.7032 22.6929 41.7032 22.3374 41.7032 21.9611C41.7032 21.8147 41.7243 21.752 41.8928 21.752C42.335 21.752 42.7772 21.752 43.1983 21.752C43.3247 21.752 43.3878 21.7729 43.3878 21.9401C43.3878 22.0865 43.3247 22.1283 43.1983 22.1074C42.9035 22.1074 42.5877 22.1074 42.2929 22.1074C42.1455 22.1074 42.0823 22.1283 42.0823 22.2956C42.1033 22.8811 41.9981 22.7766 42.5666 22.7975C42.6508 22.7975 42.7351 22.7975 42.8193 22.7975C42.9667 22.7975 42.9877 22.8602 42.9877 23.0066C42.9877 23.1529 42.9246 23.1738 42.7982 23.1738C42.6508 23.1738 42.5034 23.1948 42.335 23.1738C42.1033 23.1529 42.0612 23.2366 42.0612 23.4666C42.0823 24.0312 42.0612 24.0312 42.6508 24.0312C42.8403 24.0312 43.0299 24.0312 43.1983 24.0312C43.3247 24.0312 43.3878 24.073 43.3668 24.1984C43.3668 24.3239 43.3457 24.3866 43.1983 24.3866C42.7351 24.3866 42.2929 24.3866 41.8296 24.3866C41.7032 24.3866 41.6611 24.3448 41.6611 24.2194C41.7032 23.8221 41.7032 23.4248 41.7032 23.0484Z" fill="white"/>
<path d="M126.438 21.731C126.585 21.731 126.838 21.7937 127.069 21.9191C127.175 21.9819 127.196 22.0446 127.112 22.1283C127.048 22.2119 127.027 22.3374 126.88 22.2537C126.669 22.1073 126.417 22.0864 126.185 22.1073C125.996 22.1283 125.869 22.2119 125.827 22.4001C125.785 22.6092 125.911 22.7137 126.08 22.7765C126.248 22.8392 126.438 22.881 126.606 22.9228C127.069 23.0483 127.238 23.2783 127.217 23.7383C127.196 24.0729 126.922 24.3656 126.501 24.4075C126.143 24.4493 125.785 24.3865 125.469 24.1565C125.385 24.0938 125.301 24.0311 125.427 23.9265C125.511 23.8638 125.553 23.7383 125.701 23.8638C125.974 24.0729 126.29 24.1147 126.606 23.9893C126.754 23.9474 126.817 23.822 126.817 23.6756C126.817 23.5083 126.754 23.4038 126.606 23.341C126.438 23.2783 126.269 23.2365 126.101 23.1947C125.595 23.0483 125.364 22.7556 125.406 22.3583C125.49 21.9401 125.806 21.731 126.438 21.731Z" fill="white"/>
<path d="M93.3989 29.0704C93.3989 28.694 93.3989 28.3385 93.3989 27.9621C93.3989 27.8157 93.441 27.7739 93.5884 27.7739C94.0306 27.7739 94.4728 27.7739 94.9361 27.7739C95.0624 27.7739 95.1046 27.8157 95.1046 27.9412C95.1046 28.0667 95.0624 28.1294 94.9361 28.1294C94.6202 28.1294 94.3044 28.1294 94.0096 28.1294C93.8622 28.1294 93.799 28.1503 93.799 28.3176C93.8201 28.9031 93.7148 28.7985 94.2833 28.8194C94.3676 28.8194 94.4307 28.8194 94.515 28.8194C94.6413 28.8194 94.7255 28.8403 94.7255 29.0076C94.7255 29.154 94.6624 29.1958 94.536 29.1958C94.3676 29.1958 94.1991 29.1958 94.0306 29.1958C93.8832 29.1958 93.8201 29.2376 93.8201 29.384C93.799 30.0531 93.799 30.0531 94.4728 30.0531C94.6413 30.0531 94.7887 30.0531 94.9572 30.0531C95.1046 30.0531 95.1467 30.095 95.1467 30.2413C95.1467 30.3877 95.0835 30.4086 94.9572 30.4086C94.515 30.4086 94.0728 30.4086 93.6095 30.4086C93.4621 30.4086 93.42 30.3459 93.42 30.2204C93.3989 29.8231 93.3989 29.4467 93.3989 29.0704Z" fill="white"/>
<path d="M61.9182 22.7556C61.9182 22.4837 61.9182 22.2119 61.9182 21.9191C61.9182 21.7937 61.9814 21.7519 62.1077 21.7519C62.2341 21.7519 62.3183 21.7728 62.3183 21.9401C62.3183 22.4419 62.3183 22.9437 62.3183 23.4456C62.3183 23.822 62.5499 24.052 62.929 24.0311C63.308 24.0311 63.5396 23.8011 63.5396 23.4247C63.5396 22.9437 63.5396 22.4628 63.5396 21.961C63.5396 21.8355 63.5396 21.731 63.7291 21.731C63.8976 21.731 63.9187 21.8355 63.9187 21.961C63.9187 22.4628 63.9187 22.9647 63.9187 23.4665C63.9187 24.1774 63.1816 24.5329 62.6131 24.3447C62.1288 24.1774 61.9393 23.9056 61.9393 23.4038C61.9182 23.1947 61.9182 22.9856 61.9182 22.7556Z" fill="white"/>
<path d="M58.5281 23.0693C58.5281 22.6929 58.5281 22.3374 58.5281 21.9611C58.5281 21.8147 58.5702 21.752 58.7386 21.752C59.0335 21.752 59.3072 21.752 59.602 21.752C60.1284 21.7729 60.3601 22.1283 60.3811 22.5047C60.4022 22.9647 60.0231 23.2993 59.5599 23.2993C58.9282 23.2993 58.9282 23.2993 58.9282 23.9475C58.9282 24.0103 58.9282 24.073 58.9282 24.1148C58.9282 24.2403 58.9492 24.3657 58.7386 24.3657C58.5491 24.3657 58.5281 24.2612 58.5491 24.1357V24.1148C58.5281 23.7593 58.5281 23.4248 58.5281 23.0693ZM58.9071 22.5047C58.9071 22.6093 58.9071 22.7138 58.9071 22.7975C58.9071 22.8811 58.9282 22.9229 59.0124 22.9229C59.223 22.9229 59.4546 22.9647 59.6652 22.902C59.8757 22.8393 59.96 22.672 59.96 22.4838C59.96 22.2956 59.8547 22.1702 59.6441 22.1074C59.4757 22.0656 59.2861 22.0865 59.1177 22.0865C58.9492 22.0656 58.865 22.1283 58.8861 22.3165C58.9071 22.4002 58.9071 22.4629 58.9071 22.5047Z" fill="white"/>
<path d="M38.9658 21.7725C39.1132 21.7725 39.2606 21.7725 39.429 21.7725C39.9133 21.7934 40.145 22.1489 40.166 22.5252C40.1871 22.9644 39.8081 23.3198 39.3659 23.3198H39.3448C38.692 23.3198 38.692 23.3198 38.692 23.989C38.692 24.0517 38.692 24.1144 38.692 24.1981C38.7131 24.3444 38.6499 24.4072 38.5025 24.4072C38.3551 24.4072 38.313 24.3444 38.313 24.219C38.313 23.4662 38.313 22.7343 38.313 21.9816C38.313 21.8143 38.3762 21.7725 38.5236 21.7934C38.671 21.7725 38.8184 21.7516 38.9658 21.7725ZM39.0921 22.107C38.6288 22.1279 38.692 22.0652 38.692 22.5252C38.692 22.6089 38.692 22.7134 38.692 22.7971C38.692 22.9016 38.7131 22.9644 38.8394 22.9644C39.0289 22.9644 39.2185 22.9644 39.3869 22.9644C39.6185 22.9434 39.7449 22.7762 39.7659 22.5671C39.787 22.358 39.6396 22.2116 39.429 22.1698C39.3237 22.1279 39.1974 22.107 39.0921 22.107Z" fill="white"/>
<path d="M132.713 24.3657C132.544 24.4075 132.502 24.303 132.46 24.1775C132.292 23.6966 132.292 23.6966 131.786 23.6966C131.723 23.6966 131.66 23.6966 131.618 23.6966C131.407 23.6548 131.302 23.7384 131.26 23.9475C131.239 24.0521 131.197 24.1357 131.154 24.2403C131.091 24.4494 130.923 24.3866 130.797 24.3657C130.649 24.3239 130.775 24.1984 130.797 24.1357C131.049 23.4039 131.323 22.672 131.597 21.9401C131.639 21.8356 131.681 21.752 131.828 21.752C131.955 21.752 131.997 21.8356 132.039 21.9192C132.313 22.672 132.586 23.4039 132.86 24.1566C132.923 24.3448 132.902 24.4075 132.713 24.3657ZM131.849 22.442C131.828 22.442 131.807 22.442 131.786 22.442C131.702 22.6929 131.618 22.9647 131.512 23.2157C131.491 23.2575 131.47 23.3202 131.555 23.3411C131.723 23.3411 131.913 23.3411 132.081 23.3411C132.123 23.3411 132.123 23.2784 132.123 23.2366C132.039 22.9647 131.934 22.7138 131.849 22.442Z" fill="white"/>
<path d="M80.7644 24.3653C80.5959 24.3862 80.5538 24.3235 80.5117 24.198C80.3432 23.7171 80.3432 23.7171 79.8168 23.7171C79.2903 23.7171 79.4167 23.6335 79.2272 24.1353C79.2061 24.2189 79.2061 24.3235 79.1008 24.3653C78.9955 24.3862 78.8903 24.4071 78.806 24.3653C78.7428 24.3026 78.806 24.2189 78.8481 24.1353C79.1008 23.4244 79.3746 22.6925 79.6273 21.9816C79.6694 21.877 79.6904 21.7725 79.8589 21.7725C80.0063 21.7725 80.0273 21.877 80.0695 21.9816C80.3432 22.7134 80.617 23.4453 80.8907 24.198C80.9328 24.3026 80.9749 24.4281 80.7644 24.3653ZM79.8799 22.4416C79.8589 22.4416 79.8378 22.4416 79.8168 22.4416C79.7325 22.6925 79.6273 22.9643 79.543 23.2362C79.522 23.278 79.543 23.3407 79.5851 23.3407C79.7536 23.3407 79.9431 23.3616 80.1116 23.3407C80.1747 23.3407 80.1748 23.2571 80.1537 23.2153C80.0695 22.9643 79.9642 22.7134 79.8799 22.4416Z" fill="white"/>
<path d="M121.384 30.3878C121.236 30.4296 121.194 30.3251 121.131 30.2205C120.963 29.7396 120.963 29.7396 120.436 29.7396C119.91 29.7396 120.057 29.6559 119.868 30.1369C119.847 30.2205 119.826 30.325 119.762 30.3669C119.678 30.4505 119.552 30.4296 119.447 30.3878C119.341 30.346 119.426 30.2414 119.447 30.1787C119.72 29.4468 119.973 28.715 120.247 27.9831C120.289 27.8786 120.31 27.7949 120.457 27.7949C120.605 27.7949 120.647 27.8786 120.668 27.9831C120.942 28.715 121.215 29.4677 121.489 30.1996C121.573 30.3251 121.594 30.4296 121.384 30.3878ZM120.521 28.4431C120.394 28.6104 120.373 28.7777 120.31 28.9241C120.142 29.4259 120.141 29.4259 120.668 29.3841C120.794 29.3841 120.836 29.3423 120.794 29.2168C120.71 28.9659 120.626 28.715 120.521 28.4431Z" fill="white"/>
<path d="M72.9312 30.3878C72.7838 30.4296 72.7206 30.3251 72.6785 30.1996C72.5101 29.7187 72.5101 29.7187 71.9836 29.7187H71.9626C71.4782 29.7187 71.5835 29.6559 71.4361 30.095C71.373 30.2623 71.3309 30.4296 71.0782 30.3878C70.9939 30.3669 70.9308 30.3669 70.9729 30.2623C71.2677 29.4677 71.5625 28.6731 71.8362 27.8995C71.8783 27.7949 71.9415 27.7949 72.0257 27.7949C72.131 27.7949 72.1731 27.8367 72.2153 27.9204C72.489 28.6941 72.7838 29.4677 73.0786 30.2414C73.1628 30.4087 73.0575 30.4087 72.9312 30.3878ZM72.0889 28.485C72.0679 28.485 72.0468 28.485 72.0257 28.485C71.9415 28.7359 71.8573 28.9868 71.752 29.2168C71.7099 29.3214 71.752 29.3841 71.8573 29.3632C72.0257 29.3214 72.2153 29.4677 72.3416 29.2795C72.3416 29.2795 72.3416 29.2586 72.3205 29.2377C72.2574 28.9868 72.1731 28.7359 72.0889 28.485Z" fill="white"/>
<path d="M98.3263 24.3866C98.1999 24.4285 98.1578 24.303 98.1157 24.1775C97.9473 23.7175 97.9473 23.7175 97.4629 23.7175C96.9997 23.7175 96.9997 23.7175 96.8523 24.1566C96.8102 24.303 96.768 24.3866 96.5785 24.3866C96.4101 24.3866 96.389 24.3239 96.4522 24.1775C96.7049 23.5084 96.9365 22.8393 97.1892 22.1911C97.2313 22.0865 97.2734 21.982 97.2945 21.8774C97.3155 21.7729 97.3998 21.7729 97.484 21.752C97.5893 21.752 97.6314 21.7729 97.6735 21.8774C97.9683 22.6511 98.2421 23.4457 98.5369 24.2194C98.579 24.4075 98.4526 24.3657 98.3263 24.3866ZM97.4629 22.4002C97.3576 22.6929 97.2734 22.9438 97.1681 23.2157C97.1471 23.2575 97.126 23.3411 97.2103 23.3411C97.3787 23.3411 97.5682 23.3411 97.7367 23.3411C97.7788 23.3411 97.7999 23.2784 97.7788 23.2366C97.6735 22.9647 97.6103 22.6929 97.4629 22.4002Z" fill="white"/>
<path d="M62.3813 30.3876C62.1918 30.4294 62.1707 30.3458 62.2339 30.1785C62.5077 29.4467 62.7814 28.6939 63.0552 27.9411C63.0973 27.8366 63.1394 27.7529 63.2868 27.7529C63.4131 27.7529 63.4552 27.8366 63.4974 27.9411C63.7711 28.6939 64.0448 29.4257 64.3186 30.1785C64.3396 30.2412 64.4449 30.3458 64.2975 30.3667C64.1922 30.3876 64.0448 30.4294 63.9606 30.2831C63.9396 30.2412 63.9185 30.1785 63.8974 30.1158C63.7079 29.6139 63.8553 29.7185 63.3078 29.6976C63.2868 29.6976 63.2657 29.6976 63.2236 29.6976C62.6972 29.6976 62.8446 29.6139 62.6551 30.0949C62.6129 30.2622 62.5919 30.4294 62.3813 30.3876ZM63.3078 28.4848C63.2868 28.4848 63.2657 28.4848 63.2447 28.4848C63.1604 28.7357 63.0762 28.9866 62.9709 29.2376C62.9499 29.2794 62.9499 29.363 63.013 29.363C63.1815 29.363 63.371 29.363 63.5395 29.363C63.6026 29.363 63.5816 29.2794 63.5605 29.2376C63.4763 28.9657 63.3921 28.7357 63.3078 28.4848Z" fill="white"/>
<path d="M88.4081 29.7396C88.3871 29.7396 88.366 29.7396 88.3239 29.7396C88.0291 29.6768 87.8607 29.8023 87.7975 30.1159C87.7764 30.2832 87.7133 30.4505 87.4606 30.4087C87.3132 30.3878 87.3132 30.346 87.3553 30.2414C87.5027 29.8441 87.6501 29.4259 87.7975 29.0286C87.9238 28.6941 88.0502 28.3386 88.1765 28.004C88.2186 27.8995 88.2397 27.7949 88.3871 27.7949C88.5345 27.7949 88.5766 27.8786 88.5977 27.9831C88.8714 28.715 89.1452 29.4468 89.3978 30.1996C89.4189 30.2623 89.5242 30.3669 89.3978 30.4087C89.2926 30.4296 89.1241 30.4923 89.0399 30.3251C88.9978 30.2414 88.9556 30.1578 88.9556 30.0741C88.9135 29.8441 88.7872 29.7187 88.5345 29.7814C88.5345 29.7396 88.4713 29.7396 88.4081 29.7396ZM88.4503 28.464C88.4292 28.464 88.4081 28.464 88.3871 28.464C88.3029 28.715 88.2186 28.945 88.1344 29.1959C88.1133 29.2377 88.0923 29.3423 88.1555 29.3423C88.3239 29.3632 88.5134 29.3423 88.6819 29.3423C88.724 29.3423 88.7451 29.2795 88.724 29.2377C88.6398 28.9868 88.5556 28.7359 88.4503 28.464Z" fill="white"/>
<path d="M71.2465 24.3657C71.0991 24.4075 71.057 24.303 71.0149 24.1775C70.8465 23.6966 70.8465 23.6966 70.3411 23.6966C70.2779 23.6966 70.2147 23.6966 70.1726 23.6966C69.9621 23.6548 69.8568 23.7593 69.8147 23.9684C69.7936 24.073 69.7515 24.1566 69.7094 24.2612C69.6462 24.4494 69.4777 24.3866 69.3724 24.3657C69.225 24.3239 69.3514 24.2194 69.3724 24.1566C69.6251 23.4248 69.8989 22.6929 70.1726 21.9611C70.2147 21.8565 70.2569 21.752 70.4043 21.752C70.5517 21.752 70.5727 21.8565 70.6148 21.9611C70.8886 22.6929 71.1413 23.4248 71.4361 24.1566C71.4782 24.3448 71.4361 24.4075 71.2465 24.3657ZM70.4043 22.4629C70.3832 22.4629 70.3621 22.4629 70.3411 22.4629C70.2569 22.7138 70.1516 22.9647 70.0673 23.2157C70.0463 23.2784 70.0252 23.362 70.1305 23.362C70.2779 23.362 70.4253 23.362 70.5727 23.362C70.6569 23.362 70.678 23.3202 70.6569 23.2366C70.5938 22.9647 70.5095 22.7138 70.4043 22.4629Z" fill="white"/>
<path d="M103.422 30.3667C103.127 30.4713 102.98 30.3667 102.938 30.0949C102.896 29.8021 102.727 29.6767 102.411 29.7185C102.39 29.7185 102.369 29.7185 102.369 29.7185C101.864 29.7185 101.843 29.7185 101.695 30.1785C101.611 30.4503 101.422 30.3667 101.232 30.3667C101.506 29.6348 101.759 28.9239 102.011 28.213C102.053 28.0875 102.096 27.9829 102.138 27.8575C102.159 27.7738 102.243 27.7529 102.327 27.7529C102.411 27.7529 102.475 27.7529 102.517 27.8575C102.811 28.7148 103.106 29.5303 103.422 30.3667ZM102.369 28.4848C102.348 28.4848 102.327 28.4848 102.306 28.4848C102.222 28.7357 102.138 28.9866 102.032 29.2166C102.011 29.2794 101.99 29.363 102.096 29.363C102.243 29.363 102.39 29.363 102.538 29.363C102.643 29.363 102.643 29.3003 102.601 29.2166C102.538 28.9657 102.454 28.7357 102.369 28.4848Z" fill="white"/>
<path d="M54.3797 29.0913C54.3797 28.7149 54.3797 28.3385 54.3797 27.9621C54.3797 27.8157 54.4218 27.7739 54.5692 27.7739C55.0114 27.7739 55.4536 27.7739 55.8748 27.7739C56.0011 27.7739 56.0432 27.8367 56.0432 27.9621C56.0432 28.0876 55.98 28.1294 55.8537 28.1294C55.5589 28.1294 55.243 28.1294 54.9482 28.1294C54.7798 28.1294 54.7166 28.1921 54.7166 28.3385C54.7166 28.924 54.6745 28.7985 55.1799 28.8194C55.2641 28.8194 55.3483 28.8194 55.4326 28.8194C55.58 28.8194 55.6221 28.8822 55.6221 29.0076C55.6221 29.1331 55.5589 29.1749 55.4326 29.1749C55.2852 29.1749 55.1378 29.1958 54.9693 29.1749C54.6534 29.1331 54.6745 29.3422 54.7166 29.5304C54.7587 29.7186 54.506 30.0531 54.9693 30.0322C55.2641 30.0322 55.5379 30.0322 55.8327 30.0322C55.959 30.0322 56.0432 30.074 56.0432 30.2204C56.0432 30.3668 55.959 30.3877 55.8327 30.3877C55.4115 30.3877 54.9904 30.3877 54.5692 30.3877C54.4008 30.3877 54.3586 30.325 54.3586 30.1577C54.3797 29.8231 54.3797 29.4676 54.3797 29.0913Z" fill="white"/>
<path d="M122.226 23.0482C122.226 22.6927 122.226 22.3373 122.226 22.0027C122.226 21.8354 122.268 21.7518 122.458 21.7727C122.879 21.7727 123.3 21.7727 123.721 21.7727C123.848 21.7727 123.911 21.8145 123.911 21.9609C123.911 22.1073 123.827 22.1282 123.7 22.1282C123.406 22.1282 123.09 22.1282 122.795 22.1282C122.648 22.1282 122.584 22.1909 122.584 22.3373C122.584 22.9018 122.521 22.8182 123.069 22.8182C123.153 22.8182 123.237 22.8182 123.321 22.8182C123.469 22.8182 123.511 22.8809 123.511 23.0064C123.511 23.1528 123.448 23.1737 123.321 23.1737C123.279 23.1737 123.258 23.1737 123.216 23.1737C122.542 23.1737 122.542 23.1737 122.584 23.8428C122.584 23.9892 122.648 24.031 122.774 24.031C123.069 24.031 123.385 24.031 123.679 24.031C123.827 24.031 123.89 24.0519 123.89 24.2192C123.89 24.3865 123.785 24.3865 123.679 24.3865C123.279 24.3865 122.879 24.3865 122.458 24.3865C122.268 24.3865 122.184 24.3237 122.205 24.1355C122.247 23.7592 122.226 23.4037 122.226 23.0482Z" fill="white"/>
<path d="M114.372 29.1123C114.372 28.3805 114.625 27.9832 115.172 27.7741C115.509 27.6486 116.099 27.8159 116.309 28.1086C116.414 28.2341 116.309 28.2759 116.246 28.3596C116.183 28.4432 116.12 28.4641 116.014 28.3596C115.783 28.1296 115.509 28.025 115.193 28.1714C114.856 28.3177 114.751 28.5896 114.73 28.9241C114.709 29.1332 114.709 29.3633 114.793 29.5724C114.983 30.0951 115.572 30.2415 115.972 29.8651C116.077 29.7605 116.141 29.7187 116.267 29.8442C116.414 29.9906 116.309 30.0742 116.225 30.1369C115.93 30.3879 115.593 30.5133 115.214 30.4088C114.772 30.3042 114.519 30.0115 114.393 29.5724C114.393 29.426 114.351 29.2587 114.372 29.1123Z" fill="white"/>
<path d="M84.5758 29.1329C84.5758 29.2793 84.5758 29.4466 84.6389 29.5929C84.8284 30.0948 85.4181 30.2202 85.8181 29.8648C85.9234 29.7602 85.9866 29.7393 86.1129 29.8439C86.2603 29.9902 86.1551 30.0739 86.0708 30.1366C85.4812 30.6594 84.5758 30.513 84.281 29.6766C84.1125 29.1538 84.1546 28.3592 84.6179 27.9829C85.039 27.6274 85.8181 27.6901 86.134 28.1292C86.1972 28.2129 86.1972 28.2756 86.1129 28.3383C86.0498 28.3802 85.9866 28.5265 85.8813 28.422C85.6076 28.1501 85.3128 28.0456 84.9548 28.2338C84.7021 28.3592 84.5758 28.6311 84.5758 29.1329Z" fill="white"/>
<path d="M86.8288 23.6966C86.9762 23.2784 87.1447 22.8811 87.2921 22.4629C87.3552 22.2747 87.4395 22.0865 87.5027 21.8983C87.5237 21.8356 87.5448 21.752 87.629 21.752C87.7132 21.752 87.8396 21.7311 87.9027 21.7729C87.987 21.8356 87.9027 21.9193 87.8606 22.0029C87.5869 22.7138 87.3131 23.4457 87.0394 24.1566C86.9973 24.2821 86.9552 24.3657 86.7867 24.3657C86.6182 24.3657 86.5761 24.2612 86.534 24.1357C86.2603 23.4248 85.9865 22.7138 85.7128 21.982C85.6917 21.9193 85.5654 21.7938 85.7128 21.752C85.8391 21.7102 85.9865 21.6683 86.0708 21.8565C86.2392 22.3165 86.4287 22.7766 86.5972 23.2366C86.6604 23.383 86.7025 23.5084 86.7656 23.6548C86.7867 23.6966 86.8078 23.6966 86.8288 23.6966Z" fill="white"/>
<path d="M78.5746 29.7395C78.8062 29.1331 79.0379 28.5476 79.2484 27.9621C79.2905 27.8576 79.3327 27.7739 79.4801 27.7739C79.6696 27.7739 79.7117 27.7949 79.6485 28.004C79.3537 28.7358 79.08 29.4886 78.8062 30.2204C78.7641 30.325 78.722 30.4086 78.5746 30.4086C78.4272 30.4086 78.364 30.3459 78.3219 30.2204C78.0482 29.4886 77.7744 28.7776 77.5007 28.0458C77.4796 27.9831 77.3322 27.8576 77.5007 27.7949C77.627 27.753 77.7955 27.7321 77.8586 27.9412C78.0271 28.4222 78.2166 28.9031 78.4061 29.3631C78.4272 29.4886 78.4483 29.614 78.5746 29.7395Z" fill="white"/>
<path d="M100.284 23.2366C100.284 22.9229 100.284 22.6093 100.284 22.3165C100.284 22.1702 100.242 22.1074 100.074 22.1074C99.9897 22.1074 99.8844 22.1074 99.8002 22.1074C99.6738 22.1074 99.5896 22.0865 99.6106 21.9401C99.6106 21.7938 99.6738 21.752 99.8002 21.752C100.263 21.752 100.706 21.752 101.169 21.752C101.295 21.752 101.379 21.7729 101.379 21.9192C101.379 22.0656 101.316 22.0865 101.19 22.1074C100.685 22.1283 100.685 22.1283 100.685 22.6511C100.685 23.1529 100.685 23.6339 100.685 24.1357C100.685 24.2612 100.706 24.3866 100.495 24.3866C100.306 24.3866 100.284 24.303 100.306 24.1566C100.284 23.843 100.284 23.5502 100.284 23.2366Z" fill="white"/>
<path d="M91.0194 29.2585C91.0194 28.9658 91.0194 28.6522 91.0194 28.3594C91.0194 28.1712 90.9562 28.1085 90.7877 28.1294C90.7035 28.1294 90.5982 28.1294 90.514 28.1294C90.3876 28.1294 90.3245 28.1085 90.3245 27.9621C90.3245 27.8157 90.3666 27.7739 90.514 27.7739C90.9772 27.7739 91.4405 27.7739 91.9038 27.7739C92.0301 27.7739 92.0933 27.8157 92.0933 27.9412C92.0933 28.0667 92.0512 28.1085 91.9248 28.1294C91.4194 28.1712 91.4194 28.1712 91.4194 28.6731C91.4194 29.1749 91.4194 29.6768 91.4194 30.1786C91.4194 30.325 91.3984 30.3877 91.2299 30.3877C91.0615 30.3877 91.0404 30.325 91.0404 30.1786C91.0194 29.8859 91.0194 29.5722 91.0194 29.2585Z" fill="white"/>
<path d="M123.09 29.2376C123.09 28.9658 123.069 28.694 123.09 28.4431C123.111 28.213 123.048 28.0876 122.795 28.1294C122.732 28.1294 122.669 28.1294 122.584 28.1294C122.458 28.1294 122.395 28.1085 122.395 27.9621C122.395 27.8157 122.437 27.7739 122.584 27.7739C123.048 27.7739 123.511 27.7739 123.974 27.7739C124.121 27.7739 124.164 27.8157 124.164 27.9621C124.164 28.1085 124.1 28.1294 123.974 28.1294C123.448 28.1503 123.448 28.1503 123.448 28.6731C123.448 29.1749 123.448 29.6768 123.448 30.1786C123.448 30.3041 123.427 30.4086 123.258 30.4086C123.09 30.4086 123.069 30.3041 123.069 30.1786C123.09 29.8649 123.09 29.5513 123.09 29.2376Z" fill="white"/>
<path d="M104.98 23.0484C104.98 22.672 104.98 22.3165 104.98 21.9401C104.98 21.7938 105.023 21.752 105.17 21.752C105.296 21.752 105.359 21.7938 105.359 21.9401C105.359 22.6929 105.359 23.4457 105.359 24.1984C105.359 24.3448 105.296 24.3866 105.17 24.3866C105.023 24.3866 104.98 24.3239 104.98 24.1984C104.98 23.8012 104.98 23.4248 104.98 23.0484Z" fill="white"/>
<path d="M52.4845 23.0693C52.4845 23.4457 52.4845 23.8012 52.4845 24.1775C52.4845 24.3239 52.4213 24.3866 52.2739 24.3866C52.1265 24.3866 52.1055 24.3239 52.1055 24.1775C52.1055 23.4248 52.1055 22.6929 52.1055 21.9401C52.1055 21.7938 52.1476 21.752 52.295 21.752C52.4424 21.752 52.4845 21.7938 52.4845 21.9401C52.4845 22.3165 52.4845 22.6929 52.4845 23.0693Z" fill="white"/>
<path d="M117.762 29.0913C117.762 28.7149 117.762 28.3385 117.762 27.9621C117.762 27.8157 117.804 27.7739 117.951 27.7739C118.078 27.7739 118.141 27.8157 118.141 27.9621C118.141 28.7149 118.141 29.4676 118.141 30.2204C118.141 30.3668 118.078 30.4086 117.951 30.4086C117.825 30.4086 117.762 30.3877 117.762 30.2204C117.762 29.844 117.762 29.4676 117.762 29.0913Z" fill="white"/>
<path d="M125.827 29.1123C125.827 29.4886 125.827 29.8441 125.827 30.2205C125.827 30.3878 125.764 30.4087 125.616 30.4087C125.469 30.4087 125.427 30.346 125.427 30.2205C125.427 29.4677 125.427 28.7359 125.427 27.9831C125.427 27.8158 125.49 27.7949 125.637 27.7949C125.785 27.7949 125.827 27.8577 125.827 27.9831C125.827 28.3595 125.827 28.7359 125.827 29.1123Z" fill="white"/>
<path d="M38.2707 29.0913C38.2707 28.7358 38.2707 28.3803 38.2707 28.0039C38.2707 27.8576 38.2918 27.7739 38.4603 27.7739C38.6287 27.7739 38.6498 27.8576 38.6498 28.0039C38.6498 28.7358 38.6498 29.4467 38.6498 30.1786C38.6498 30.3041 38.6498 30.4086 38.4603 30.4086C38.2707 30.4086 38.2497 30.325 38.2707 30.1786C38.2707 29.8022 38.2707 29.4467 38.2707 29.0913Z" fill="white"/>
<path d="M60.9075 29.1122C60.9075 29.4676 60.9075 29.8231 60.9075 30.1995C60.9075 30.325 60.8865 30.4295 60.718 30.4086C60.5496 30.4086 60.5496 30.325 60.5496 30.1995C60.5496 29.4677 60.5496 28.7358 60.5496 27.983C60.5496 27.8576 60.5706 27.7739 60.718 27.7739C60.8865 27.7739 60.9075 27.8576 60.9075 28.0039C60.9075 28.3594 60.9075 28.7358 60.9075 29.1122Z" fill="white"/>
<path d="M129.217 23.0689C129.217 23.4453 129.217 23.8007 129.217 24.1771C129.217 24.3026 129.196 24.3862 129.049 24.3862C128.901 24.3862 128.859 24.3235 128.859 24.198C128.859 23.4453 128.859 22.7134 128.859 21.9607C128.859 21.8143 128.901 21.7725 129.049 21.7725C129.217 21.7725 129.217 21.8561 129.217 21.9816C129.217 22.337 129.217 22.6925 129.217 23.0689Z" fill="white"/>
</svg>
