<svg width="26" height="27" viewBox="0 0 26 27" fill="none" xmlns="http://www.w3.org/2000/svg">
<path d="M5.93833 2.95823C5.8424 2.83483 5.72132 2.73326 5.58312 2.66025C5.44492 2.58725 5.29277 2.54449 5.13677 2.5348C4.98078 2.52512 4.8245 2.54874 4.67834 2.60409C4.53217 2.65945 4.39946 2.74527 4.28901 2.85586L2.60881 4.53769C1.82396 5.32417 1.53472 6.43727 1.87758 7.41387C3.30222 11.4553 5.61684 15.125 8.65037 18.1516C11.677 21.1852 15.3466 23.4998 19.388 24.9244C20.3646 25.2673 21.4777 24.9781 22.2642 24.1932L23.9444 22.513C24.055 22.4026 24.1408 22.2698 24.1962 22.1237C24.2515 21.9775 24.2751 21.8212 24.2654 21.6652C24.2558 21.5092 24.213 21.3571 24.14 21.2189C24.067 21.0807 23.9654 20.9596 23.842 20.8637L20.0933 17.9485C19.9613 17.8465 19.808 17.7756 19.6448 17.7413C19.4815 17.7069 19.3127 17.71 19.1508 17.7502L15.5922 18.6391C15.1171 18.757 14.6197 18.7503 14.148 18.6196C13.6763 18.489 13.2463 18.2388 12.8996 17.8932L8.90874 13.9007C8.56292 13.5542 8.31241 13.1243 8.18146 12.6526C8.05051 12.1809 8.04355 11.6833 8.16126 11.2082L9.05173 7.64949C9.09196 7.48762 9.09503 7.31874 9.06069 7.15552C9.02636 6.99229 8.95552 6.83896 8.85349 6.70701L5.93833 2.95823ZM3.06217 1.63064C3.34653 1.34619 3.68815 1.12549 4.06434 0.983192C4.44053 0.840895 4.8427 0.780259 5.24412 0.80531C5.64555 0.830361 6.03705 0.940525 6.39263 1.12849C6.74822 1.31645 7.05975 1.57791 7.30654 1.89551L10.2217 5.64267C10.7563 6.33002 10.9448 7.22538 10.7336 8.07036L9.84471 11.629C9.79907 11.8134 9.80171 12.0063 9.85238 12.1894C9.90304 12.3724 10 12.5392 10.1339 12.6739L14.1264 16.6664C14.2612 16.8006 14.4284 16.8977 14.6117 16.9484C14.795 16.9991 14.9883 17.0016 15.1729 16.9556L18.7299 16.0668C19.147 15.9631 19.5821 15.9553 20.0025 16.044C20.423 16.1326 20.8179 16.3154 21.1576 16.5786L24.9047 19.4938C26.2518 20.5419 26.3753 22.5325 25.1696 23.7366L23.4894 25.4168C22.2869 26.6193 20.4897 27.1474 18.8144 26.5575C14.5257 25.0505 10.6321 22.5955 7.42353 19.3752C4.20349 16.1671 1.74848 12.2741 0.241258 7.98586C-0.346974 6.31215 0.181135 4.51332 1.3836 3.31085L3.06217 1.63064Z" fill="white"/>
</svg>
