<svg width="24" height="27" viewBox="0 0 24 27" fill="none" xmlns="http://www.w3.org/2000/svg">
<path fill-rule="evenodd" clip-rule="evenodd" d="M1.56267 1.56267C-1.58946e-07 3.124 0 5.63867 0 10.6667V16C0 21.028 -1.58946e-07 23.5427 1.56267 25.104C3.124 26.6667 5.63867 26.6667 10.6667 26.6667H13.3333C18.3613 26.6667 20.876 26.6667 22.4373 25.104C24 23.5427 24 21.028 24 16V10.6667C24 5.63867 24 3.124 22.4373 1.56267C20.876 -1.58946e-07 18.3613 0 13.3333 0H10.6667C5.63867 0 3.124 -1.58946e-07 1.56267 1.56267ZM5.66667 8C5.66667 7.73478 5.77202 7.48043 5.95956 7.29289C6.1471 7.10536 6.40145 7 6.66667 7H17.3333C17.5986 7 17.8529 7.10536 18.0404 7.29289C18.228 7.48043 18.3333 7.73478 18.3333 8C18.3333 8.26522 18.228 8.51957 18.0404 8.70711C17.8529 8.89464 17.5986 9 17.3333 9H6.66667C6.40145 9 6.1471 8.89464 5.95956 8.70711C5.77202 8.51957 5.66667 8.26522 5.66667 8ZM5.66667 13.3333C5.66667 13.0681 5.77202 12.8138 5.95956 12.6262C6.1471 12.4387 6.40145 12.3333 6.66667 12.3333H17.3333C17.5986 12.3333 17.8529 12.4387 18.0404 12.6262C18.228 12.8138 18.3333 13.0681 18.3333 13.3333C18.3333 13.5985 18.228 13.8529 18.0404 14.0404C17.8529 14.228 17.5986 14.3333 17.3333 14.3333H6.66667C6.40145 14.3333 6.1471 14.228 5.95956 14.0404C5.77202 13.8529 5.66667 13.5985 5.66667 13.3333ZM6.66667 17.6667C6.40145 17.6667 6.1471 17.772 5.95956 17.9596C5.77202 18.1471 5.66667 18.4014 5.66667 18.6667C5.66667 18.9319 5.77202 19.1862 5.95956 19.3738C6.1471 19.5613 6.40145 19.6667 6.66667 19.6667H13.3333C13.5985 19.6667 13.8529 19.5613 14.0404 19.3738C14.228 19.1862 14.3333 18.9319 14.3333 18.6667C14.3333 18.4014 14.228 18.1471 14.0404 17.9596C13.8529 17.772 13.5985 17.6667 13.3333 17.6667H6.66667Z" fill="#85A2C6"/>
</svg>
