<svg width="24" height="24" viewBox="0 0 24 24" fill="none" xmlns="http://www.w3.org/2000/svg">
<path d="M2.66667 4.66699C1.95942 4.66699 1.28115 4.94794 0.781049 5.44804C0.280952 5.94814 0 6.62641 0 7.33366V20.667C0 21.3742 0.280952 22.0525 0.781049 22.5526C1.28115 23.0527 1.95942 23.3337 2.66667 23.3337H21.3333C22.0406 23.3337 22.7189 23.0527 23.219 22.5526C23.719 22.0525 24 21.3742 24 20.667V7.33366C24 6.62641 23.719 5.94814 23.219 5.44804C22.7189 4.94794 22.0406 4.66699 21.3333 4.66699H2.66667ZM2.66667 19.3337L7.33333 13.3337L10.6667 17.3337L15.3333 11.3337L21.3333 19.3337H2.66667ZM20 0.666992C20.7072 0.666992 21.3855 0.947944 21.8856 1.44804C22.3857 1.94814 22.6667 2.62641 22.6667 3.33366H1.33333C1.33333 2.62641 1.61428 1.94814 2.11438 1.44804C2.61448 0.947944 3.29276 0.666992 4 0.666992H20Z" fill="#85A2C6"/>
</svg>
