<svg width="24" height="25" viewBox="0 0 24 25" fill="none" xmlns="http://www.w3.org/2000/svg">
<path d="M5.58947 8.94069L10.2947 1.267C10.4211 1.05648 10.5789 0.903635 10.7684 0.808477C10.9579 0.713319 11.1579 0.666161 11.3684 0.667003C11.5789 0.667003 11.7789 0.714582 11.9684 0.80974C12.1579 0.904898 12.3158 1.05732 12.4421 1.267L17.1474 8.94069C17.2737 9.15121 17.3368 9.37227 17.3368 9.60385C17.3368 9.83542 17.2842 10.0459 17.1789 10.2354C17.0737 10.4249 16.9263 10.5777 16.7368 10.694C16.5474 10.8102 16.3263 10.8678 16.0737 10.867H6.66316C6.41053 10.867 6.18947 10.8093 6 10.694C5.81053 10.5786 5.66316 10.4257 5.55789 10.2354C5.45263 10.0459 5.4 9.83542 5.4 9.60385C5.4 9.37227 5.46316 9.15121 5.58947 8.94069ZM18.3158 24.7617C16.7368 24.7617 15.3949 24.2093 14.2901 23.1045C13.1853 21.9996 12.6324 20.6573 12.6316 19.0775C12.6316 17.4986 13.1844 16.1567 14.2901 15.0518C15.3958 13.947 16.7377 13.3942 18.3158 13.3933C19.8947 13.3933 21.2371 13.9462 22.3427 15.0518C23.4484 16.1575 24.0008 17.4994 24 19.0775C24 20.6565 23.4476 21.9988 22.3427 23.1045C21.2379 24.2102 19.8956 24.7626 18.3158 24.7617ZM0 22.867L0 15.2881C0 14.9302 0.121263 14.6304 0.36379 14.3887C0.606316 14.147 0.906105 14.0257 1.26316 14.0249H8.8421C9.2 14.0249 9.50021 14.1462 9.74274 14.3887C9.98526 14.6312 10.1061 14.931 10.1053 15.2881V22.867C10.1053 23.2249 9.984 23.5251 9.74147 23.7676C9.49895 24.0102 9.19916 24.131 8.8421 24.1302H1.26316C0.905263 24.1302 0.605474 24.0089 0.36379 23.7664C0.122105 23.5238 0.000842105 23.2241 0 22.867Z" fill="#85A2C6"/>
</svg>
