<svg width="24" height="24" viewBox="0 0 24 24" fill="none" xmlns="http://www.w3.org/2000/svg">
<path fill-rule="evenodd" clip-rule="evenodd" d="M16.7713 11.5659C16.7713 11.3359 16.6799 11.1152 16.5173 10.9526C16.3546 10.7899 16.1339 10.6985 15.9039 10.6985H3.21252L5.48061 8.7554C5.56719 8.68128 5.63832 8.59083 5.68994 8.48922C5.74156 8.38762 5.77266 8.27683 5.78147 8.1632C5.79027 8.04957 5.77661 7.93532 5.74126 7.82697C5.70592 7.71862 5.64957 7.6183 5.57545 7.53172C5.50133 7.44514 5.41089 7.37402 5.30928 7.3224C5.20767 7.27078 5.09688 7.23967 4.98325 7.23087C4.86963 7.22206 4.75537 7.23572 4.64702 7.27107C4.53867 7.30642 4.43835 7.36276 4.35177 7.43688L0.303674 10.9067C0.208446 10.9881 0.13199 11.0892 0.0795677 11.203C0.0271451 11.3168 0 11.4406 0 11.5659C0 11.6912 0.0271451 11.8151 0.0795677 11.9289C0.13199 12.0427 0.208446 12.1438 0.303674 12.2252L4.35177 15.695C4.52662 15.8447 4.75377 15.9188 4.98325 15.901C5.21274 15.8832 5.42576 15.775 5.57545 15.6002C5.72515 15.4253 5.79925 15.1982 5.78147 14.9687C5.76368 14.7392 5.65546 14.5262 5.48061 14.3765L3.21368 12.4334H15.9039C16.1339 12.4334 16.3546 12.342 16.5173 12.1793C16.6799 12.0166 16.7713 11.796 16.7713 11.5659Z" fill="#93ADCD"/>
<path d="M8.96411 6.9396C8.96411 7.75153 8.96411 8.15749 9.15958 8.45011C9.24376 8.57593 9.35183 8.68399 9.47764 8.76818C9.77026 8.96364 10.1762 8.96364 10.9882 8.96364H15.9037C16.5939 8.96364 17.2558 9.23782 17.7438 9.72585C18.2319 10.2139 18.5061 10.8758 18.5061 11.566C18.5061 12.2562 18.2319 12.9181 17.7438 13.4061C17.2558 13.8942 16.5939 14.1683 15.9037 14.1683H10.9882C10.1762 14.1683 9.77026 14.1683 9.47764 14.3626C9.35172 14.4472 9.24364 14.5556 9.15958 14.6819C8.96411 14.9745 8.96411 15.3805 8.96411 16.1924C8.96411 19.4633 8.96411 21.0998 9.98076 22.1153C10.9963 23.132 12.6317 23.132 15.9025 23.132H17.0592C20.3323 23.132 21.9666 23.132 22.9833 22.1153C23.9999 21.0998 23.9999 19.4633 23.9999 16.1924V6.9396C23.9999 3.66873 23.9999 2.03215 22.9833 1.01665C21.9666 -6.89387e-08 20.3312 0 17.0603 0H15.9037C12.6317 0 10.9963 -6.89387e-08 9.98076 1.01665C8.96411 2.03215 8.96411 3.66873 8.96411 6.9396Z" fill="#93ADCD"/>
</svg>
