<svg width="24" height="28" viewBox="0 0 24 28" fill="none" xmlns="http://www.w3.org/2000/svg">
<path d="M10.8 10.1146C9.66881 9.82249 8.68297 9.12789 8.02728 8.16096C7.37159 7.19402 7.09105 6.02114 7.23826 4.86217C7.38547 3.70319 7.95032 2.63769 8.82692 1.86538C9.70353 1.09308 10.8317 0.666992 12 0.666992C13.1683 0.666992 14.2965 1.09308 15.1731 1.86538C16.0497 2.63769 16.6145 3.70319 16.7617 4.86217C16.9089 6.02114 16.6284 7.19402 15.9727 8.16096C15.317 9.12789 14.3312 9.82249 13.2 10.1146V12.6658H18C18.6365 12.6658 19.247 12.9186 19.697 13.3687C20.1471 13.8188 20.4 14.4292 20.4 15.0658V17.617C21.5312 17.909 22.517 18.6036 23.1727 19.5706C23.8284 20.5375 24.1089 21.7104 23.9617 22.8694C23.8145 24.0283 23.2497 25.0938 22.3731 25.8661C21.4965 26.6384 20.3683 27.0645 19.2 27.0645C18.0317 27.0645 16.9035 26.6384 16.0269 25.8661C15.1503 25.0938 14.5855 24.0283 14.4383 22.8694C14.291 21.7104 14.5716 20.5375 15.2273 19.5706C15.883 18.6036 16.8688 17.909 18 17.617V15.0658H6.00001V17.617C7.1312 17.909 8.11703 18.6036 8.77273 19.5706C9.42842 20.5375 9.70895 21.7104 9.56174 22.8694C9.41454 24.0283 8.84969 25.0938 7.97308 25.8661C7.09648 26.6384 5.96829 27.0645 4.80001 27.0645C3.63172 27.0645 2.50354 26.6384 1.62693 25.8661C0.750325 25.0938 0.185478 24.0283 0.0382691 22.8694C-0.10894 21.7104 0.171595 20.5375 0.827289 19.5706C1.48298 18.6036 2.46882 17.909 3.60001 17.617V15.0658C3.60001 14.4292 3.85286 13.8188 4.30295 13.3687C4.75304 12.9186 5.36349 12.6658 6.00001 12.6658H10.8V10.1146Z" fill="#85A2C6"/>
</svg>
