<svg width="24" height="22" viewBox="0 0 24 22" fill="none" xmlns="http://www.w3.org/2000/svg">
<path d="M12 0.666992C11.5502 0.666992 11.1048 0.755586 10.6893 0.927716C10.2737 1.09985 9.89611 1.35214 9.57806 1.67019C9.26 1.98825 9.00771 2.36583 8.83558 2.78139C8.66345 3.19695 8.57486 3.64234 8.57486 4.09213C8.57486 4.54193 8.66345 4.98732 8.83558 5.40288C9.00771 5.81844 9.26 6.19602 9.57806 6.51408C9.89611 6.83213 10.2737 7.08442 10.6893 7.25655C11.1048 7.42868 11.5502 7.51728 12 7.51728C12.9084 7.51728 13.7796 7.15641 14.4219 6.51408C15.0643 5.87174 15.4251 5.00054 15.4251 4.09213C15.4251 3.18373 15.0643 2.31253 14.4219 1.67019C13.7796 1.02785 12.9084 0.666992 12 0.666992ZM19.7143 2.37785C19.0323 2.37785 18.3782 2.64877 17.896 3.131C17.4138 3.61324 17.1429 4.26729 17.1429 4.94928C17.1429 5.63126 17.4138 6.28532 17.896 6.76755C18.3782 7.24979 19.0323 7.52071 19.7143 7.52071C20.3963 7.52071 21.0503 7.24979 21.5326 6.76755C22.0148 6.28532 22.2857 5.63126 22.2857 4.94928C22.2857 4.26729 22.0148 3.61324 21.5326 3.131C21.0503 2.64877 20.3963 2.37785 19.7143 2.37785ZM4.28571 2.37785C3.60373 2.37785 2.94968 2.64877 2.46744 3.131C1.9852 3.61324 1.71429 4.26729 1.71429 4.94928C1.71429 5.63126 1.9852 6.28532 2.46744 6.76755C2.94968 7.24979 3.60373 7.52071 4.28571 7.52071C4.9677 7.52071 5.62175 7.24979 6.10399 6.76755C6.58623 6.28532 6.85714 5.63126 6.85714 4.94928C6.85714 4.26729 6.58623 3.61324 6.10399 3.131C5.62175 2.64877 4.9677 2.37785 4.28571 2.37785ZM6.85714 10.9373C6.86031 10.4847 7.04232 10.0517 7.36347 9.73284C7.68462 9.41394 8.11884 9.23498 8.57143 9.23499H15.4286C15.8832 9.23499 16.3193 9.4156 16.6408 9.73709C16.9622 10.0586 17.1429 10.4946 17.1429 10.9493V16.0921C17.1427 16.6317 17.0583 17.1678 16.8926 17.6813C16.513 18.8448 15.731 19.8348 14.6872 20.4737C13.6433 21.1125 12.4059 21.3583 11.1971 21.1669C9.98829 20.9755 8.88734 20.3594 8.09191 19.4293C7.29648 18.4992 6.85869 17.316 6.85714 16.0921V10.9493V10.9373ZM5.14286 10.9493C5.14286 10.3236 5.30914 9.73899 5.60229 9.23499H1.71429C1.25963 9.23499 0.823594 9.4156 0.502103 9.73709C0.180612 10.0586 2.3728e-07 10.4946 2.3728e-07 10.9493V15.235C-0.000233225 15.9367 0.171816 16.6276 0.501039 17.2473C0.830262 17.8669 1.30659 18.3962 1.88819 18.7888C2.46978 19.1813 3.13886 19.425 3.83667 19.4985C4.53447 19.5721 5.23965 19.4731 5.89029 19.2104C5.39688 18.2445 5.14066 17.175 5.14286 16.0904V10.9493ZM18.8571 10.9493V16.0921C18.8571 17.215 18.588 18.2744 18.1097 19.2104C18.7603 19.4731 19.4655 19.5721 20.1633 19.4985C20.8611 19.425 21.5302 19.1813 22.1118 18.7888C22.6934 18.3962 23.1697 17.8669 23.499 17.2473C23.8282 16.6276 24.0002 15.9367 24 15.235V10.9493C24 10.4946 23.8194 10.0586 23.4979 9.73709C23.1764 9.4156 22.7404 9.23499 22.2857 9.23499H18.3977C18.6891 9.73899 18.8571 10.3236 18.8571 10.9493Z" fill="#85A2C6"/>
</svg>
